<svg width="2807" height="121" viewBox="0 0 2807 121" fill="none" xmlns="http://www.w3.org/2000/svg">
<g opacity="0.5">
<g opacity="0.5">
<mask id="path-1-outside-1_125_104" maskUnits="userSpaceOnUse" x="1" y="23" width="366" height="75" fill="black">
<rect fill="white" x="1" y="23" width="366" height="75"/>
<path d="M11.7898 24.2727L33.3807 85.4943H34.233L55.8239 24.2727H65.0568L38.3523 97H29.2614L2.55682 24.2727H11.7898ZM85.1918 24.2727V97H76.3849V24.2727H85.1918ZM102.85 97V24.2727H127.424C133.105 24.2727 137.769 25.2434 141.415 27.1847C145.061 29.1023 147.76 31.7419 149.512 35.1037C151.264 38.4654 152.14 42.2888 152.14 46.5739C152.14 50.8589 151.264 54.6586 149.512 57.973C147.76 61.2874 145.073 63.8916 141.451 65.7855C137.828 67.6558 133.2 68.5909 127.566 68.5909H107.679V60.6364H127.282C131.164 60.6364 134.289 60.0682 136.657 58.9318C139.048 57.7955 140.776 56.1856 141.841 54.1023C142.93 51.9953 143.475 49.4858 143.475 46.5739C143.475 43.6619 142.93 41.1169 141.841 38.9389C140.752 36.7609 139.012 35.08 136.621 33.8963C134.23 32.6889 131.069 32.0852 127.14 32.0852H111.657V97H102.85ZM137.083 64.3295L154.98 97H144.753L127.14 64.3295H137.083ZM169.798 97H160.565L187.269 24.2727H196.36L223.065 97H213.832L192.099 35.7784H191.531L169.798 97ZM173.207 68.5909H210.423V76.4034H173.207V68.5909ZM234.393 24.2727H244.904L269.62 84.642H270.472L295.188 24.2727H305.7V97H297.461V41.7443H296.751L274.023 97H266.069L243.342 41.7443H242.631V97H234.393V24.2727ZM323.358 97V24.2727H332.164V89.1875H365.971V97H323.358Z"/>
</mask>
<path d="M11.7898 24.2727L12.7328 23.9401L12.4975 23.2727H11.7898V24.2727ZM33.3807 85.4943L32.4376 85.8269L32.673 86.4943H33.3807V85.4943ZM34.233 85.4943V86.4943H34.9407L35.176 85.8269L34.233 85.4943ZM55.8239 24.2727V23.2727H55.1162L54.8808 23.9401L55.8239 24.2727ZM65.0568 24.2727L65.9955 24.6174L66.4893 23.2727H65.0568V24.2727ZM38.3523 97V98H39.0504L39.291 97.3447L38.3523 97ZM29.2614 97L28.3226 97.3447L28.5633 98H29.2614V97ZM2.55682 24.2727V23.2727H1.12435L1.6181 24.6174L2.55682 24.2727ZM10.8467 24.6053L32.4376 85.8269L34.3238 85.1617L12.7328 23.9401L10.8467 24.6053ZM33.3807 86.4943H34.233V84.4943H33.3807V86.4943ZM35.176 85.8269L56.7669 24.6053L54.8808 23.9401L33.2899 85.1617L35.176 85.8269ZM55.8239 25.2727H65.0568V23.2727H55.8239V25.2727ZM64.1181 23.928L37.4136 96.6553L39.291 97.3447L65.9955 24.6174L64.1181 23.928ZM38.3523 96H29.2614V98H38.3523V96ZM30.2001 96.6553L3.49554 23.928L1.6181 24.6174L28.3226 97.3447L30.2001 96.6553ZM2.55682 25.2727H11.7898V23.2727H2.55682V25.2727ZM85.1918 24.2727H86.1918V23.2727H85.1918V24.2727ZM85.1918 97V98H86.1918V97H85.1918ZM76.3849 97H75.3849V98H76.3849V97ZM76.3849 24.2727V23.2727H75.3849V24.2727H76.3849ZM84.1918 24.2727V97H86.1918V24.2727H84.1918ZM85.1918 96H76.3849V98H85.1918V96ZM77.3849 97V24.2727H75.3849V97H77.3849ZM76.3849 25.2727H85.1918V23.2727H76.3849V25.2727ZM102.85 97H101.85V98H102.85V97ZM102.85 24.2727V23.2727H101.85V24.2727H102.85ZM141.415 27.1847L140.945 28.0673L140.95 28.0697L141.415 27.1847ZM149.512 35.1037L148.625 35.5658L148.625 35.5658L149.512 35.1037ZM149.512 57.973L148.628 57.5057L148.628 57.5057L149.512 57.973ZM141.451 65.7855L141.909 66.6741L141.914 66.6717L141.451 65.7855ZM107.679 68.5909H106.679V69.5909H107.679V68.5909ZM107.679 60.6364V59.6364H106.679V60.6364H107.679ZM136.657 58.9318L136.227 58.0286L136.224 58.0303L136.657 58.9318ZM141.841 54.1023L140.953 53.6431L140.951 53.647L141.841 54.1023ZM136.621 33.8963L136.17 34.789L136.177 34.7925L136.621 33.8963ZM111.657 32.0852V31.0852H110.657V32.0852H111.657ZM111.657 97V98H112.657V97H111.657ZM137.083 64.3295L137.96 63.8491L137.675 63.3295H137.083V64.3295ZM154.98 97V98H156.669L155.857 96.5195L154.98 97ZM144.753 97L143.873 97.4746L144.156 98H144.753V97ZM127.14 64.3295V63.3295H125.464L126.259 64.8041L127.14 64.3295ZM103.85 97V24.2727H101.85V97H103.85ZM102.85 25.2727H127.424V23.2727H102.85V25.2727ZM127.424 25.2727C133 25.2727 137.488 26.2265 140.945 28.0673L141.885 26.302C138.051 24.2602 133.211 23.2727 127.424 23.2727V25.2727ZM140.95 28.0697C144.432 29.9011 146.975 32.4004 148.625 35.5658L150.399 34.6416C148.544 31.0835 145.69 28.3034 141.881 26.2996L140.95 28.0697ZM148.625 35.5658C150.293 38.7672 151.14 42.4285 151.14 46.5739H153.14C153.14 42.1491 152.234 38.1637 150.399 34.6416L148.625 35.5658ZM151.14 46.5739C151.14 50.7195 150.293 54.3547 148.628 57.5057L150.396 58.4403C152.234 54.9625 153.14 50.9983 153.14 46.5739H151.14ZM148.628 57.5057C146.979 60.6249 144.447 63.0903 140.987 64.8993L141.914 66.6717C145.699 64.6928 148.541 61.9499 150.396 58.4403L148.628 57.5057ZM140.992 64.897C137.555 66.6714 133.098 67.5909 127.566 67.5909V69.5909C133.302 69.5909 138.102 68.6401 141.909 66.6741L140.992 64.897ZM127.566 67.5909H107.679V69.5909H127.566V67.5909ZM108.679 68.5909V60.6364H106.679V68.5909H108.679ZM107.679 61.6364H127.282V59.6364H107.679V61.6364ZM127.282 61.6364C131.248 61.6364 134.538 61.058 137.089 59.8333L136.224 58.0303C134.04 59.0784 131.08 59.6364 127.282 59.6364V61.6364ZM137.086 59.835C139.648 58.6172 141.553 56.8623 142.732 54.5576L140.951 53.647C139.999 55.5089 138.447 56.9737 136.227 58.0286L137.086 59.835ZM142.73 54.5614C143.907 52.2837 144.475 49.6097 144.475 46.5739H142.475C142.475 49.3619 141.954 51.7068 140.953 53.6431L142.73 54.5614ZM144.475 46.5739C144.475 43.5368 143.906 40.8332 142.736 38.4917L140.947 39.3861C141.954 41.4007 142.475 43.7871 142.475 46.5739H144.475ZM142.736 38.4917C141.54 36.1001 139.631 34.2706 137.065 33.0001L136.177 34.7925C138.393 35.8894 139.965 37.4217 140.947 39.3861L142.736 38.4917ZM137.072 33.0037C134.491 31.7005 131.158 31.0852 127.14 31.0852V33.0852C130.98 33.0852 133.969 33.6773 136.17 34.789L137.072 33.0037ZM127.14 31.0852H111.657V33.0852H127.14V31.0852ZM110.657 32.0852V97H112.657V32.0852H110.657ZM111.657 96H102.85V98H111.657V96ZM136.206 64.81L154.103 97.4805L155.857 96.5195L137.96 63.8491L136.206 64.81ZM154.98 96H144.753V98H154.98V96ZM145.633 96.5254L128.02 63.855L126.259 64.8041L143.873 97.4746L145.633 96.5254ZM127.14 65.3295H137.083V63.3295H127.14V65.3295ZM169.798 97V98H170.504L170.74 97.3345L169.798 97ZM160.565 97L159.626 96.6553L159.132 98H160.565V97ZM187.269 24.2727V23.2727H186.571L186.33 23.928L187.269 24.2727ZM196.36 24.2727L197.299 23.928L197.058 23.2727H196.36V24.2727ZM223.065 97V98H224.497L224.003 96.6553L223.065 97ZM213.832 97L212.889 97.3345L213.126 98H213.832V97ZM192.099 35.7784L193.041 35.4439L192.805 34.7784H192.099V35.7784ZM191.531 35.7784V34.7784H190.824L190.588 35.4439L191.531 35.7784ZM173.207 68.5909V67.5909H172.207V68.5909H173.207ZM210.423 68.5909H211.423V67.5909H210.423V68.5909ZM210.423 76.4034V77.4034H211.423V76.4034H210.423ZM173.207 76.4034H172.207V77.4034H173.207V76.4034ZM169.798 96H160.565V98H169.798V96ZM161.503 97.3447L188.208 24.6174L186.33 23.928L159.626 96.6553L161.503 97.3447ZM187.269 25.2727H196.36V23.2727H187.269V25.2727ZM195.421 24.6174L222.126 97.3447L224.003 96.6553L197.299 23.928L195.421 24.6174ZM223.065 96H213.832V98H223.065V96ZM214.774 96.6655L193.041 35.4439L191.156 36.1129L212.889 97.3345L214.774 96.6655ZM192.099 34.7784H191.531V36.7784H192.099V34.7784ZM190.588 35.4439L168.855 96.6655L170.74 97.3345L192.473 36.1129L190.588 35.4439ZM173.207 69.5909H210.423V67.5909H173.207V69.5909ZM209.423 68.5909V76.4034H211.423V68.5909H209.423ZM210.423 75.4034H173.207V77.4034H210.423V75.4034ZM174.207 76.4034V68.5909H172.207V76.4034H174.207ZM234.393 24.2727V23.2727H233.393V24.2727H234.393ZM244.904 24.2727L245.83 23.8938L245.575 23.2727H244.904V24.2727ZM269.62 84.642L268.695 85.0209L268.949 85.642H269.62V84.642ZM270.472 84.642V85.642H271.143L271.398 85.0209L270.472 84.642ZM295.188 24.2727V23.2727H294.517L294.263 23.8938L295.188 24.2727ZM305.7 24.2727H306.7V23.2727H305.7V24.2727ZM305.7 97V98H306.7V97H305.7ZM297.461 97H296.461V98H297.461V97ZM297.461 41.7443H298.461V40.7443H297.461V41.7443ZM296.751 41.7443V40.7443H296.081L295.826 41.3639L296.751 41.7443ZM274.023 97V98H274.693L274.948 97.3804L274.023 97ZM266.069 97L265.144 97.3804L265.399 98H266.069V97ZM243.342 41.7443L244.266 41.3639L244.012 40.7443H243.342V41.7443ZM242.631 41.7443V40.7443H241.631V41.7443H242.631ZM242.631 97V98H243.631V97H242.631ZM234.393 97H233.393V98H234.393V97ZM234.393 25.2727H244.904V23.2727H234.393V25.2727ZM243.979 24.6516L268.695 85.0209L270.545 84.2632L245.83 23.8938L243.979 24.6516ZM269.62 85.642H270.472V83.642H269.62V85.642ZM271.398 85.0209L296.114 24.6516L294.263 23.8938L269.547 84.2632L271.398 85.0209ZM295.188 25.2727H305.7V23.2727H295.188V25.2727ZM304.7 24.2727V97H306.7V24.2727H304.7ZM305.7 96H297.461V98H305.7V96ZM298.461 97V41.7443H296.461V97H298.461ZM297.461 40.7443H296.751V42.7443H297.461V40.7443ZM295.826 41.3639L273.099 96.6196L274.948 97.3804L297.676 42.1247L295.826 41.3639ZM274.023 96H266.069V98H274.023V96ZM266.994 96.6196L244.266 41.3639L242.417 42.1247L265.144 97.3804L266.994 96.6196ZM243.342 40.7443H242.631V42.7443H243.342V40.7443ZM241.631 41.7443V97H243.631V41.7443H241.631ZM242.631 96H234.393V98H242.631V96ZM235.393 97V24.2727H233.393V97H235.393ZM323.358 97H322.358V98H323.358V97ZM323.358 24.2727V23.2727H322.358V24.2727H323.358ZM332.164 24.2727H333.164V23.2727H332.164V24.2727ZM332.164 89.1875H331.164V90.1875H332.164V89.1875ZM365.971 89.1875H366.971V88.1875H365.971V89.1875ZM365.971 97V98H366.971V97H365.971ZM324.358 97V24.2727H322.358V97H324.358ZM323.358 25.2727H332.164V23.2727H323.358V25.2727ZM331.164 24.2727V89.1875H333.164V24.2727H331.164ZM332.164 90.1875H365.971V88.1875H332.164V90.1875ZM364.971 89.1875V97H366.971V89.1875H364.971ZM365.971 96H323.358V98H365.971V96Z" fill="url(#paint0_linear_125_104)" mask="url(#path-1-outside-1_125_104)"/>
</g>
<g opacity="0.5">
<mask id="path-3-outside-2_125_104" maskUnits="userSpaceOnUse" x="407" y="23" width="366" height="75" fill="black">
<rect fill="white" x="407" y="23" width="366" height="75"/>
<path d="M417.79 24.2727L439.381 85.4943H440.233L461.824 24.2727H471.057L444.352 97H435.261L408.557 24.2727H417.79ZM491.192 24.2727V97H482.385V24.2727H491.192ZM508.85 97V24.2727H533.424C539.105 24.2727 543.769 25.2434 547.415 27.1847C551.061 29.1023 553.76 31.7419 555.512 35.1037C557.264 38.4654 558.14 42.2888 558.14 46.5739C558.14 50.8589 557.264 54.6586 555.512 57.973C553.76 61.2874 551.073 63.8916 547.451 65.7855C543.828 67.6558 539.2 68.5909 533.566 68.5909H513.679V60.6364H533.282C537.164 60.6364 540.289 60.0682 542.657 58.9318C545.048 57.7955 546.776 56.1856 547.841 54.1023C548.93 51.9953 549.475 49.4858 549.475 46.5739C549.475 43.6619 548.93 41.1169 547.841 38.9389C546.752 36.7609 545.012 35.08 542.621 33.8963C540.23 32.6889 537.069 32.0852 533.14 32.0852H517.657V97H508.85ZM543.083 64.3295L560.98 97H550.753L533.14 64.3295H543.083ZM575.798 97H566.565L593.269 24.2727H602.36L629.065 97H619.832L598.099 35.7784H597.531L575.798 97ZM579.207 68.5909H616.423V76.4034H579.207V68.5909ZM640.393 24.2727H650.904L675.62 84.642H676.472L701.188 24.2727H711.7V97H703.461V41.7443H702.751L680.023 97H672.069L649.342 41.7443H648.631V97H640.393V24.2727ZM729.358 97V24.2727H738.164V89.1875H771.971V97H729.358Z"/>
</mask>
<path d="M417.79 24.2727L418.733 23.9401L418.497 23.2727H417.79V24.2727ZM439.381 85.4943L438.438 85.8269L438.673 86.4943H439.381V85.4943ZM440.233 85.4943V86.4943H440.941L441.176 85.8269L440.233 85.4943ZM461.824 24.2727V23.2727H461.116L460.881 23.9401L461.824 24.2727ZM471.057 24.2727L471.996 24.6174L472.489 23.2727H471.057V24.2727ZM444.352 97V98H445.05L445.291 97.3447L444.352 97ZM435.261 97L434.323 97.3447L434.563 98H435.261V97ZM408.557 24.2727V23.2727H407.124L407.618 24.6174L408.557 24.2727ZM416.847 24.6053L438.438 85.8269L440.324 85.1617L418.733 23.9401L416.847 24.6053ZM439.381 86.4943H440.233V84.4943H439.381V86.4943ZM441.176 85.8269L462.767 24.6053L460.881 23.9401L439.29 85.1617L441.176 85.8269ZM461.824 25.2727H471.057V23.2727H461.824V25.2727ZM470.118 23.928L443.414 96.6553L445.291 97.3447L471.996 24.6174L470.118 23.928ZM444.352 96H435.261V98H444.352V96ZM436.2 96.6553L409.496 23.928L407.618 24.6174L434.323 97.3447L436.2 96.6553ZM408.557 25.2727H417.79V23.2727H408.557V25.2727ZM491.192 24.2727H492.192V23.2727H491.192V24.2727ZM491.192 97V98H492.192V97H491.192ZM482.385 97H481.385V98H482.385V97ZM482.385 24.2727V23.2727H481.385V24.2727H482.385ZM490.192 24.2727V97H492.192V24.2727H490.192ZM491.192 96H482.385V98H491.192V96ZM483.385 97V24.2727H481.385V97H483.385ZM482.385 25.2727H491.192V23.2727H482.385V25.2727ZM508.85 97H507.85V98H508.85V97ZM508.85 24.2727V23.2727H507.85V24.2727H508.85ZM547.415 27.1847L546.945 28.0673L546.95 28.0697L547.415 27.1847ZM555.512 35.1037L554.625 35.5658L554.625 35.5658L555.512 35.1037ZM555.512 57.973L554.628 57.5057L554.628 57.5057L555.512 57.973ZM547.451 65.7855L547.909 66.6741L547.914 66.6717L547.451 65.7855ZM513.679 68.5909H512.679V69.5909H513.679V68.5909ZM513.679 60.6364V59.6364H512.679V60.6364H513.679ZM542.657 58.9318L542.227 58.0286L542.224 58.0303L542.657 58.9318ZM547.841 54.1023L546.953 53.6431L546.951 53.647L547.841 54.1023ZM542.621 33.8963L542.17 34.789L542.177 34.7925L542.621 33.8963ZM517.657 32.0852V31.0852H516.657V32.0852H517.657ZM517.657 97V98H518.657V97H517.657ZM543.083 64.3295L543.96 63.8491L543.675 63.3295H543.083V64.3295ZM560.98 97V98H562.669L561.857 96.5195L560.98 97ZM550.753 97L549.873 97.4746L550.156 98H550.753V97ZM533.14 64.3295V63.3295H531.464L532.259 64.8041L533.14 64.3295ZM509.85 97V24.2727H507.85V97H509.85ZM508.85 25.2727H533.424V23.2727H508.85V25.2727ZM533.424 25.2727C539 25.2727 543.488 26.2265 546.945 28.0673L547.885 26.302C544.051 24.2602 539.211 23.2727 533.424 23.2727V25.2727ZM546.95 28.0697C550.432 29.9011 552.975 32.4004 554.625 35.5658L556.399 34.6416C554.544 31.0835 551.69 28.3034 547.881 26.2996L546.95 28.0697ZM554.625 35.5658C556.293 38.7672 557.14 42.4285 557.14 46.5739H559.14C559.14 42.1491 558.234 38.1637 556.399 34.6416L554.625 35.5658ZM557.14 46.5739C557.14 50.7195 556.293 54.3547 554.628 57.5057L556.396 58.4403C558.234 54.9625 559.14 50.9983 559.14 46.5739H557.14ZM554.628 57.5057C552.979 60.6249 550.447 63.0903 546.987 64.8993L547.914 66.6717C551.699 64.6928 554.541 61.9499 556.396 58.4403L554.628 57.5057ZM546.992 64.897C543.555 66.6714 539.098 67.5909 533.566 67.5909V69.5909C539.302 69.5909 544.102 68.6401 547.909 66.6741L546.992 64.897ZM533.566 67.5909H513.679V69.5909H533.566V67.5909ZM514.679 68.5909V60.6364H512.679V68.5909H514.679ZM513.679 61.6364H533.282V59.6364H513.679V61.6364ZM533.282 61.6364C537.248 61.6364 540.538 61.058 543.089 59.8333L542.224 58.0303C540.04 59.0784 537.08 59.6364 533.282 59.6364V61.6364ZM543.086 59.835C545.648 58.6172 547.553 56.8623 548.732 54.5576L546.951 53.647C545.999 55.5089 544.447 56.9737 542.227 58.0286L543.086 59.835ZM548.73 54.5614C549.907 52.2837 550.475 49.6097 550.475 46.5739H548.475C548.475 49.3619 547.954 51.7068 546.953 53.6431L548.73 54.5614ZM550.475 46.5739C550.475 43.5368 549.906 40.8332 548.736 38.4917L546.947 39.3861C547.954 41.4007 548.475 43.7871 548.475 46.5739H550.475ZM548.736 38.4917C547.54 36.1001 545.631 34.2706 543.065 33.0001L542.177 34.7925C544.393 35.8894 545.965 37.4217 546.947 39.3861L548.736 38.4917ZM543.072 33.0037C540.491 31.7005 537.158 31.0852 533.14 31.0852V33.0852C536.98 33.0852 539.969 33.6773 542.17 34.789L543.072 33.0037ZM533.14 31.0852H517.657V33.0852H533.14V31.0852ZM516.657 32.0852V97H518.657V32.0852H516.657ZM517.657 96H508.85V98H517.657V96ZM542.206 64.81L560.103 97.4805L561.857 96.5195L543.96 63.8491L542.206 64.81ZM560.98 96H550.753V98H560.98V96ZM551.633 96.5254L534.02 63.855L532.259 64.8041L549.873 97.4746L551.633 96.5254ZM533.14 65.3295H543.083V63.3295H533.14V65.3295ZM575.798 97V98H576.504L576.74 97.3345L575.798 97ZM566.565 97L565.626 96.6553L565.132 98H566.565V97ZM593.269 24.2727V23.2727H592.571L592.33 23.928L593.269 24.2727ZM602.36 24.2727L603.299 23.928L603.058 23.2727H602.36V24.2727ZM629.065 97V98H630.497L630.003 96.6553L629.065 97ZM619.832 97L618.889 97.3345L619.126 98H619.832V97ZM598.099 35.7784L599.041 35.4439L598.805 34.7784H598.099V35.7784ZM597.531 35.7784V34.7784H596.824L596.588 35.4439L597.531 35.7784ZM579.207 68.5909V67.5909H578.207V68.5909H579.207ZM616.423 68.5909H617.423V67.5909H616.423V68.5909ZM616.423 76.4034V77.4034H617.423V76.4034H616.423ZM579.207 76.4034H578.207V77.4034H579.207V76.4034ZM575.798 96H566.565V98H575.798V96ZM567.503 97.3447L594.208 24.6174L592.33 23.928L565.626 96.6553L567.503 97.3447ZM593.269 25.2727H602.36V23.2727H593.269V25.2727ZM601.421 24.6174L628.126 97.3447L630.003 96.6553L603.299 23.928L601.421 24.6174ZM629.065 96H619.832V98H629.065V96ZM620.774 96.6655L599.041 35.4439L597.156 36.1129L618.889 97.3345L620.774 96.6655ZM598.099 34.7784H597.531V36.7784H598.099V34.7784ZM596.588 35.4439L574.855 96.6655L576.74 97.3345L598.473 36.1129L596.588 35.4439ZM579.207 69.5909H616.423V67.5909H579.207V69.5909ZM615.423 68.5909V76.4034H617.423V68.5909H615.423ZM616.423 75.4034H579.207V77.4034H616.423V75.4034ZM580.207 76.4034V68.5909H578.207V76.4034H580.207ZM640.393 24.2727V23.2727H639.393V24.2727H640.393ZM650.904 24.2727L651.83 23.8938L651.575 23.2727H650.904V24.2727ZM675.62 84.642L674.695 85.0209L674.949 85.642H675.62V84.642ZM676.472 84.642V85.642H677.143L677.398 85.0209L676.472 84.642ZM701.188 24.2727V23.2727H700.517L700.263 23.8938L701.188 24.2727ZM711.7 24.2727H712.7V23.2727H711.7V24.2727ZM711.7 97V98H712.7V97H711.7ZM703.461 97H702.461V98H703.461V97ZM703.461 41.7443H704.461V40.7443H703.461V41.7443ZM702.751 41.7443V40.7443H702.081L701.826 41.3639L702.751 41.7443ZM680.023 97V98H680.693L680.948 97.3804L680.023 97ZM672.069 97L671.144 97.3804L671.399 98H672.069V97ZM649.342 41.7443L650.266 41.3639L650.012 40.7443H649.342V41.7443ZM648.631 41.7443V40.7443H647.631V41.7443H648.631ZM648.631 97V98H649.631V97H648.631ZM640.393 97H639.393V98H640.393V97ZM640.393 25.2727H650.904V23.2727H640.393V25.2727ZM649.979 24.6516L674.695 85.0209L676.545 84.2632L651.83 23.8938L649.979 24.6516ZM675.62 85.642H676.472V83.642H675.62V85.642ZM677.398 85.0209L702.114 24.6516L700.263 23.8938L675.547 84.2632L677.398 85.0209ZM701.188 25.2727H711.7V23.2727H701.188V25.2727ZM710.7 24.2727V97H712.7V24.2727H710.7ZM711.7 96H703.461V98H711.7V96ZM704.461 97V41.7443H702.461V97H704.461ZM703.461 40.7443H702.751V42.7443H703.461V40.7443ZM701.826 41.3639L679.099 96.6196L680.948 97.3804L703.676 42.1247L701.826 41.3639ZM680.023 96H672.069V98H680.023V96ZM672.994 96.6196L650.266 41.3639L648.417 42.1247L671.144 97.3804L672.994 96.6196ZM649.342 40.7443H648.631V42.7443H649.342V40.7443ZM647.631 41.7443V97H649.631V41.7443H647.631ZM648.631 96H640.393V98H648.631V96ZM641.393 97V24.2727H639.393V97H641.393ZM729.358 97H728.358V98H729.358V97ZM729.358 24.2727V23.2727H728.358V24.2727H729.358ZM738.164 24.2727H739.164V23.2727H738.164V24.2727ZM738.164 89.1875H737.164V90.1875H738.164V89.1875ZM771.971 89.1875H772.971V88.1875H771.971V89.1875ZM771.971 97V98H772.971V97H771.971ZM730.358 97V24.2727H728.358V97H730.358ZM729.358 25.2727H738.164V23.2727H729.358V25.2727ZM737.164 24.2727V89.1875H739.164V24.2727H737.164ZM738.164 90.1875H771.971V88.1875H738.164V90.1875ZM770.971 89.1875V97H772.971V89.1875H770.971ZM771.971 96H729.358V98H771.971V96Z" fill="url(#paint1_linear_125_104)" mask="url(#path-3-outside-2_125_104)"/>
</g>
<g opacity="0.5">
<mask id="path-5-outside-3_125_104" maskUnits="userSpaceOnUse" x="813" y="23" width="366" height="75" fill="black">
<rect fill="white" x="813" y="23" width="366" height="75"/>
<path d="M823.79 24.2727L845.381 85.4943H846.233L867.824 24.2727H877.057L850.352 97H841.261L814.557 24.2727H823.79ZM897.192 24.2727V97H888.385V24.2727H897.192ZM914.85 97V24.2727H939.424C945.105 24.2727 949.769 25.2434 953.415 27.1847C957.061 29.1023 959.76 31.7419 961.512 35.1037C963.264 38.4654 964.14 42.2888 964.14 46.5739C964.14 50.8589 963.264 54.6586 961.512 57.973C959.76 61.2874 957.073 63.8916 953.451 65.7855C949.828 67.6558 945.2 68.5909 939.566 68.5909H919.679V60.6364H939.282C943.164 60.6364 946.289 60.0682 948.657 58.9318C951.048 57.7955 952.776 56.1856 953.841 54.1023C954.93 51.9953 955.475 49.4858 955.475 46.5739C955.475 43.6619 954.93 41.1169 953.841 38.9389C952.752 36.7609 951.012 35.08 948.621 33.8963C946.23 32.6889 943.069 32.0852 939.14 32.0852H923.657V97H914.85ZM949.083 64.3295L966.98 97H956.753L939.14 64.3295H949.083ZM981.798 97H972.565L999.269 24.2727H1008.36L1035.06 97H1025.83L1004.1 35.7784H1003.53L981.798 97ZM985.207 68.5909H1022.42V76.4034H985.207V68.5909ZM1046.39 24.2727H1056.9L1081.62 84.642H1082.47L1107.19 24.2727H1117.7V97H1109.46V41.7443H1108.75L1086.02 97H1078.07L1055.34 41.7443H1054.63V97H1046.39V24.2727ZM1135.36 97V24.2727H1144.16V89.1875H1177.97V97H1135.36Z"/>
</mask>
<path d="M823.79 24.2727L824.733 23.9401L824.497 23.2727H823.79V24.2727ZM845.381 85.4943L844.438 85.8269L844.673 86.4943H845.381V85.4943ZM846.233 85.4943V86.4943H846.941L847.176 85.8269L846.233 85.4943ZM867.824 24.2727V23.2727H867.116L866.881 23.9401L867.824 24.2727ZM877.057 24.2727L877.996 24.6174L878.489 23.2727H877.057V24.2727ZM850.352 97V98H851.05L851.291 97.3447L850.352 97ZM841.261 97L840.323 97.3447L840.563 98H841.261V97ZM814.557 24.2727V23.2727H813.124L813.618 24.6174L814.557 24.2727ZM822.847 24.6053L844.438 85.8269L846.324 85.1617L824.733 23.9401L822.847 24.6053ZM845.381 86.4943H846.233V84.4943H845.381V86.4943ZM847.176 85.8269L868.767 24.6053L866.881 23.9401L845.29 85.1617L847.176 85.8269ZM867.824 25.2727H877.057V23.2727H867.824V25.2727ZM876.118 23.928L849.414 96.6553L851.291 97.3447L877.996 24.6174L876.118 23.928ZM850.352 96H841.261V98H850.352V96ZM842.2 96.6553L815.496 23.928L813.618 24.6174L840.323 97.3447L842.2 96.6553ZM814.557 25.2727H823.79V23.2727H814.557V25.2727ZM897.192 24.2727H898.192V23.2727H897.192V24.2727ZM897.192 97V98H898.192V97H897.192ZM888.385 97H887.385V98H888.385V97ZM888.385 24.2727V23.2727H887.385V24.2727H888.385ZM896.192 24.2727V97H898.192V24.2727H896.192ZM897.192 96H888.385V98H897.192V96ZM889.385 97V24.2727H887.385V97H889.385ZM888.385 25.2727H897.192V23.2727H888.385V25.2727ZM914.85 97H913.85V98H914.85V97ZM914.85 24.2727V23.2727H913.85V24.2727H914.85ZM953.415 27.1847L952.945 28.0673L952.95 28.0697L953.415 27.1847ZM961.512 35.1037L960.625 35.5658L960.625 35.5658L961.512 35.1037ZM961.512 57.973L960.628 57.5057L960.628 57.5057L961.512 57.973ZM953.451 65.7855L953.909 66.6741L953.914 66.6717L953.451 65.7855ZM919.679 68.5909H918.679V69.5909H919.679V68.5909ZM919.679 60.6364V59.6364H918.679V60.6364H919.679ZM948.657 58.9318L948.227 58.0286L948.224 58.0303L948.657 58.9318ZM953.841 54.1023L952.953 53.6431L952.951 53.647L953.841 54.1023ZM948.621 33.8963L948.17 34.789L948.177 34.7925L948.621 33.8963ZM923.657 32.0852V31.0852H922.657V32.0852H923.657ZM923.657 97V98H924.657V97H923.657ZM949.083 64.3295L949.96 63.8491L949.675 63.3295H949.083V64.3295ZM966.98 97V98H968.669L967.857 96.5195L966.98 97ZM956.753 97L955.873 97.4746L956.156 98H956.753V97ZM939.14 64.3295V63.3295H937.464L938.259 64.8041L939.14 64.3295ZM915.85 97V24.2727H913.85V97H915.85ZM914.85 25.2727H939.424V23.2727H914.85V25.2727ZM939.424 25.2727C945 25.2727 949.488 26.2265 952.945 28.0673L953.885 26.302C950.051 24.2602 945.211 23.2727 939.424 23.2727V25.2727ZM952.95 28.0697C956.432 29.9011 958.975 32.4004 960.625 35.5658L962.399 34.6416C960.544 31.0835 957.69 28.3034 953.881 26.2996L952.95 28.0697ZM960.625 35.5658C962.293 38.7672 963.14 42.4285 963.14 46.5739H965.14C965.14 42.1491 964.234 38.1637 962.399 34.6416L960.625 35.5658ZM963.14 46.5739C963.14 50.7195 962.293 54.3547 960.628 57.5057L962.396 58.4403C964.234 54.9625 965.14 50.9983 965.14 46.5739H963.14ZM960.628 57.5057C958.979 60.6249 956.447 63.0903 952.987 64.8993L953.914 66.6717C957.699 64.6928 960.541 61.9499 962.396 58.4403L960.628 57.5057ZM952.992 64.897C949.555 66.6714 945.098 67.5909 939.566 67.5909V69.5909C945.302 69.5909 950.102 68.6401 953.909 66.6741L952.992 64.897ZM939.566 67.5909H919.679V69.5909H939.566V67.5909ZM920.679 68.5909V60.6364H918.679V68.5909H920.679ZM919.679 61.6364H939.282V59.6364H919.679V61.6364ZM939.282 61.6364C943.248 61.6364 946.538 61.058 949.089 59.8333L948.224 58.0303C946.04 59.0784 943.08 59.6364 939.282 59.6364V61.6364ZM949.086 59.835C951.648 58.6172 953.553 56.8623 954.732 54.5576L952.951 53.647C951.999 55.5089 950.447 56.9737 948.227 58.0286L949.086 59.835ZM954.73 54.5614C955.907 52.2837 956.475 49.6097 956.475 46.5739H954.475C954.475 49.3619 953.954 51.7068 952.953 53.6431L954.73 54.5614ZM956.475 46.5739C956.475 43.5368 955.906 40.8332 954.736 38.4917L952.947 39.3861C953.954 41.4007 954.475 43.7871 954.475 46.5739H956.475ZM954.736 38.4917C953.54 36.1001 951.631 34.2706 949.065 33.0001L948.177 34.7925C950.393 35.8894 951.965 37.4217 952.947 39.3861L954.736 38.4917ZM949.072 33.0037C946.491 31.7005 943.158 31.0852 939.14 31.0852V33.0852C942.98 33.0852 945.969 33.6773 948.17 34.789L949.072 33.0037ZM939.14 31.0852H923.657V33.0852H939.14V31.0852ZM922.657 32.0852V97H924.657V32.0852H922.657ZM923.657 96H914.85V98H923.657V96ZM948.206 64.81L966.103 97.4805L967.857 96.5195L949.96 63.8491L948.206 64.81ZM966.98 96H956.753V98H966.98V96ZM957.633 96.5254L940.02 63.855L938.259 64.8041L955.873 97.4746L957.633 96.5254ZM939.14 65.3295H949.083V63.3295H939.14V65.3295ZM981.798 97V98H982.504L982.74 97.3345L981.798 97ZM972.565 97L971.626 96.6553L971.132 98H972.565V97ZM999.269 24.2727V23.2727H998.571L998.33 23.928L999.269 24.2727ZM1008.36 24.2727L1009.3 23.928L1009.06 23.2727H1008.36V24.2727ZM1035.06 97V98H1036.5L1036 96.6553L1035.06 97ZM1025.83 97L1024.89 97.3345L1025.13 98H1025.83V97ZM1004.1 35.7784L1005.04 35.4439L1004.8 34.7784H1004.1V35.7784ZM1003.53 35.7784V34.7784H1002.82L1002.59 35.4439L1003.53 35.7784ZM985.207 68.5909V67.5909H984.207V68.5909H985.207ZM1022.42 68.5909H1023.42V67.5909H1022.42V68.5909ZM1022.42 76.4034V77.4034H1023.42V76.4034H1022.42ZM985.207 76.4034H984.207V77.4034H985.207V76.4034ZM981.798 96H972.565V98H981.798V96ZM973.503 97.3447L1000.21 24.6174L998.33 23.928L971.626 96.6553L973.503 97.3447ZM999.269 25.2727H1008.36V23.2727H999.269V25.2727ZM1007.42 24.6174L1034.13 97.3447L1036 96.6553L1009.3 23.928L1007.42 24.6174ZM1035.06 96H1025.83V98H1035.06V96ZM1026.77 96.6655L1005.04 35.4439L1003.16 36.1129L1024.89 97.3345L1026.77 96.6655ZM1004.1 34.7784H1003.53V36.7784H1004.1V34.7784ZM1002.59 35.4439L980.855 96.6655L982.74 97.3345L1004.47 36.1129L1002.59 35.4439ZM985.207 69.5909H1022.42V67.5909H985.207V69.5909ZM1021.42 68.5909V76.4034H1023.42V68.5909H1021.42ZM1022.42 75.4034H985.207V77.4034H1022.42V75.4034ZM986.207 76.4034V68.5909H984.207V76.4034H986.207ZM1046.39 24.2727V23.2727H1045.39V24.2727H1046.39ZM1056.9 24.2727L1057.83 23.8938L1057.58 23.2727H1056.9V24.2727ZM1081.62 84.642L1080.69 85.0209L1080.95 85.642H1081.62V84.642ZM1082.47 84.642V85.642H1083.14L1083.4 85.0209L1082.47 84.642ZM1107.19 24.2727V23.2727H1106.52L1106.26 23.8938L1107.19 24.2727ZM1117.7 24.2727H1118.7V23.2727H1117.7V24.2727ZM1117.7 97V98H1118.7V97H1117.7ZM1109.46 97H1108.46V98H1109.46V97ZM1109.46 41.7443H1110.46V40.7443H1109.46V41.7443ZM1108.75 41.7443V40.7443H1108.08L1107.83 41.3639L1108.75 41.7443ZM1086.02 97V98H1086.69L1086.95 97.3804L1086.02 97ZM1078.07 97L1077.14 97.3804L1077.4 98H1078.07V97ZM1055.34 41.7443L1056.27 41.3639L1056.01 40.7443H1055.34V41.7443ZM1054.63 41.7443V40.7443H1053.63V41.7443H1054.63ZM1054.63 97V98H1055.63V97H1054.63ZM1046.39 97H1045.39V98H1046.39V97ZM1046.39 25.2727H1056.9V23.2727H1046.39V25.2727ZM1055.98 24.6516L1080.69 85.0209L1082.55 84.2632L1057.83 23.8938L1055.98 24.6516ZM1081.62 85.642H1082.47V83.642H1081.62V85.642ZM1083.4 85.0209L1108.11 24.6516L1106.26 23.8938L1081.55 84.2632L1083.4 85.0209ZM1107.19 25.2727H1117.7V23.2727H1107.19V25.2727ZM1116.7 24.2727V97H1118.7V24.2727H1116.7ZM1117.7 96H1109.46V98H1117.7V96ZM1110.46 97V41.7443H1108.46V97H1110.46ZM1109.46 40.7443H1108.75V42.7443H1109.46V40.7443ZM1107.83 41.3639L1085.1 96.6196L1086.95 97.3804L1109.68 42.1247L1107.83 41.3639ZM1086.02 96H1078.07V98H1086.02V96ZM1078.99 96.6196L1056.27 41.3639L1054.42 42.1247L1077.14 97.3804L1078.99 96.6196ZM1055.34 40.7443H1054.63V42.7443H1055.34V40.7443ZM1053.63 41.7443V97H1055.63V41.7443H1053.63ZM1054.63 96H1046.39V98H1054.63V96ZM1047.39 97V24.2727H1045.39V97H1047.39ZM1135.36 97H1134.36V98H1135.36V97ZM1135.36 24.2727V23.2727H1134.36V24.2727H1135.36ZM1144.16 24.2727H1145.16V23.2727H1144.16V24.2727ZM1144.16 89.1875H1143.16V90.1875H1144.16V89.1875ZM1177.97 89.1875H1178.97V88.1875H1177.97V89.1875ZM1177.97 97V98H1178.97V97H1177.97ZM1136.36 97V24.2727H1134.36V97H1136.36ZM1135.36 25.2727H1144.16V23.2727H1135.36V25.2727ZM1143.16 24.2727V89.1875H1145.16V24.2727H1143.16ZM1144.16 90.1875H1177.97V88.1875H1144.16V90.1875ZM1176.97 89.1875V97H1178.97V89.1875H1176.97ZM1177.97 96H1135.36V98H1177.97V96Z" fill="url(#paint2_linear_125_104)" mask="url(#path-5-outside-3_125_104)"/>
</g>
<g opacity="0.5">
<mask id="path-7-outside-4_125_104" maskUnits="userSpaceOnUse" x="1219" y="23" width="366" height="75" fill="black">
<rect fill="white" x="1219" y="23" width="366" height="75"/>
<path d="M1229.79 24.2727L1251.38 85.4943H1252.23L1273.82 24.2727H1283.06L1256.35 97H1247.26L1220.56 24.2727H1229.79ZM1303.19 24.2727V97H1294.38V24.2727H1303.19ZM1320.85 97V24.2727H1345.42C1351.11 24.2727 1355.77 25.2434 1359.42 27.1847C1363.06 29.1023 1365.76 31.7419 1367.51 35.1037C1369.26 38.4654 1370.14 42.2888 1370.14 46.5739C1370.14 50.8589 1369.26 54.6586 1367.51 57.973C1365.76 61.2874 1363.07 63.8916 1359.45 65.7855C1355.83 67.6558 1351.2 68.5909 1345.57 68.5909H1325.68V60.6364H1345.28C1349.16 60.6364 1352.29 60.0682 1354.66 58.9318C1357.05 57.7955 1358.78 56.1856 1359.84 54.1023C1360.93 51.9953 1361.47 49.4858 1361.47 46.5739C1361.47 43.6619 1360.93 41.1169 1359.84 38.9389C1358.75 36.7609 1357.01 35.08 1354.62 33.8963C1352.23 32.6889 1349.07 32.0852 1345.14 32.0852H1329.66V97H1320.85ZM1355.08 64.3295L1372.98 97H1362.75L1345.14 64.3295H1355.08ZM1387.8 97H1378.56L1405.27 24.2727H1414.36L1441.06 97H1431.83L1410.1 35.7784H1409.53L1387.8 97ZM1391.21 68.5909H1428.42V76.4034H1391.21V68.5909ZM1452.39 24.2727H1462.9L1487.62 84.642H1488.47L1513.19 24.2727H1523.7V97H1515.46V41.7443H1514.75L1492.02 97H1484.07L1461.34 41.7443H1460.63V97H1452.39V24.2727ZM1541.36 97V24.2727H1550.16V89.1875H1583.97V97H1541.36Z"/>
</mask>
<path d="M1229.79 24.2727L1230.73 23.9401L1230.5 23.2727H1229.79V24.2727ZM1251.38 85.4943L1250.44 85.8269L1250.67 86.4943H1251.38V85.4943ZM1252.23 85.4943V86.4943H1252.94L1253.18 85.8269L1252.23 85.4943ZM1273.82 24.2727V23.2727H1273.12L1272.88 23.9401L1273.82 24.2727ZM1283.06 24.2727L1284 24.6174L1284.49 23.2727H1283.06V24.2727ZM1256.35 97V98H1257.05L1257.29 97.3447L1256.35 97ZM1247.26 97L1246.32 97.3447L1246.56 98H1247.26V97ZM1220.56 24.2727V23.2727H1219.12L1219.62 24.6174L1220.56 24.2727ZM1228.85 24.6053L1250.44 85.8269L1252.32 85.1617L1230.73 23.9401L1228.85 24.6053ZM1251.38 86.4943H1252.23V84.4943H1251.38V86.4943ZM1253.18 85.8269L1274.77 24.6053L1272.88 23.9401L1251.29 85.1617L1253.18 85.8269ZM1273.82 25.2727H1283.06V23.2727H1273.82V25.2727ZM1282.12 23.928L1255.41 96.6553L1257.29 97.3447L1284 24.6174L1282.12 23.928ZM1256.35 96H1247.26V98H1256.35V96ZM1248.2 96.6553L1221.5 23.928L1219.62 24.6174L1246.32 97.3447L1248.2 96.6553ZM1220.56 25.2727H1229.79V23.2727H1220.56V25.2727ZM1303.19 24.2727H1304.19V23.2727H1303.19V24.2727ZM1303.19 97V98H1304.19V97H1303.19ZM1294.38 97H1293.38V98H1294.38V97ZM1294.38 24.2727V23.2727H1293.38V24.2727H1294.38ZM1302.19 24.2727V97H1304.19V24.2727H1302.19ZM1303.19 96H1294.38V98H1303.19V96ZM1295.38 97V24.2727H1293.38V97H1295.38ZM1294.38 25.2727H1303.19V23.2727H1294.38V25.2727ZM1320.85 97H1319.85V98H1320.85V97ZM1320.85 24.2727V23.2727H1319.85V24.2727H1320.85ZM1359.42 27.1847L1358.95 28.0673L1358.95 28.0697L1359.42 27.1847ZM1367.51 35.1037L1366.62 35.5658L1366.62 35.5658L1367.51 35.1037ZM1367.51 57.973L1366.63 57.5057L1366.63 57.5057L1367.51 57.973ZM1359.45 65.7855L1359.91 66.6741L1359.91 66.6717L1359.45 65.7855ZM1325.68 68.5909H1324.68V69.5909H1325.68V68.5909ZM1325.68 60.6364V59.6364H1324.68V60.6364H1325.68ZM1354.66 58.9318L1354.23 58.0286L1354.22 58.0303L1354.66 58.9318ZM1359.84 54.1023L1358.95 53.6431L1358.95 53.647L1359.84 54.1023ZM1354.62 33.8963L1354.17 34.789L1354.18 34.7925L1354.62 33.8963ZM1329.66 32.0852V31.0852H1328.66V32.0852H1329.66ZM1329.66 97V98H1330.66V97H1329.66ZM1355.08 64.3295L1355.96 63.8491L1355.68 63.3295H1355.08V64.3295ZM1372.98 97V98H1374.67L1373.86 96.5195L1372.98 97ZM1362.75 97L1361.87 97.4746L1362.16 98H1362.75V97ZM1345.14 64.3295V63.3295H1343.46L1344.26 64.8041L1345.14 64.3295ZM1321.85 97V24.2727H1319.85V97H1321.85ZM1320.85 25.2727H1345.42V23.2727H1320.85V25.2727ZM1345.42 25.2727C1351 25.2727 1355.49 26.2265 1358.95 28.0673L1359.89 26.302C1356.05 24.2602 1351.21 23.2727 1345.42 23.2727V25.2727ZM1358.95 28.0697C1362.43 29.9011 1364.98 32.4004 1366.62 35.5658L1368.4 34.6416C1366.54 31.0835 1363.69 28.3034 1359.88 26.2996L1358.95 28.0697ZM1366.62 35.5658C1368.29 38.7672 1369.14 42.4285 1369.14 46.5739H1371.14C1371.14 42.1491 1370.23 38.1637 1368.4 34.6416L1366.62 35.5658ZM1369.14 46.5739C1369.14 50.7195 1368.29 54.3547 1366.63 57.5057L1368.4 58.4403C1370.23 54.9625 1371.14 50.9983 1371.14 46.5739H1369.14ZM1366.63 57.5057C1364.98 60.6249 1362.45 63.0903 1358.99 64.8993L1359.91 66.6717C1363.7 64.6928 1366.54 61.9499 1368.4 58.4403L1366.63 57.5057ZM1358.99 64.897C1355.56 66.6714 1351.1 67.5909 1345.57 67.5909V69.5909C1351.3 69.5909 1356.1 68.6401 1359.91 66.6741L1358.99 64.897ZM1345.57 67.5909H1325.68V69.5909H1345.57V67.5909ZM1326.68 68.5909V60.6364H1324.68V68.5909H1326.68ZM1325.68 61.6364H1345.28V59.6364H1325.68V61.6364ZM1345.28 61.6364C1349.25 61.6364 1352.54 61.058 1355.09 59.8333L1354.22 58.0303C1352.04 59.0784 1349.08 59.6364 1345.28 59.6364V61.6364ZM1355.09 59.835C1357.65 58.6172 1359.55 56.8623 1360.73 54.5576L1358.95 53.647C1358 55.5089 1356.45 56.9737 1354.23 58.0286L1355.09 59.835ZM1360.73 54.5614C1361.91 52.2837 1362.47 49.6097 1362.47 46.5739H1360.47C1360.47 49.3619 1359.95 51.7068 1358.95 53.6431L1360.73 54.5614ZM1362.47 46.5739C1362.47 43.5368 1361.91 40.8332 1360.74 38.4917L1358.95 39.3861C1359.95 41.4007 1360.47 43.7871 1360.47 46.5739H1362.47ZM1360.74 38.4917C1359.54 36.1001 1357.63 34.2706 1355.06 33.0001L1354.18 34.7925C1356.39 35.8894 1357.96 37.4217 1358.95 39.3861L1360.74 38.4917ZM1355.07 33.0037C1352.49 31.7005 1349.16 31.0852 1345.14 31.0852V33.0852C1348.98 33.0852 1351.97 33.6773 1354.17 34.789L1355.07 33.0037ZM1345.14 31.0852H1329.66V33.0852H1345.14V31.0852ZM1328.66 32.0852V97H1330.66V32.0852H1328.66ZM1329.66 96H1320.85V98H1329.66V96ZM1354.21 64.81L1372.1 97.4805L1373.86 96.5195L1355.96 63.8491L1354.21 64.81ZM1372.98 96H1362.75V98H1372.98V96ZM1363.63 96.5254L1346.02 63.855L1344.26 64.8041L1361.87 97.4746L1363.63 96.5254ZM1345.14 65.3295H1355.08V63.3295H1345.14V65.3295ZM1387.8 97V98H1388.5L1388.74 97.3345L1387.8 97ZM1378.56 97L1377.63 96.6553L1377.13 98H1378.56V97ZM1405.27 24.2727V23.2727H1404.57L1404.33 23.928L1405.27 24.2727ZM1414.36 24.2727L1415.3 23.928L1415.06 23.2727H1414.36V24.2727ZM1441.06 97V98H1442.5L1442 96.6553L1441.06 97ZM1431.83 97L1430.89 97.3345L1431.13 98H1431.83V97ZM1410.1 35.7784L1411.04 35.4439L1410.8 34.7784H1410.1V35.7784ZM1409.53 35.7784V34.7784H1408.82L1408.59 35.4439L1409.53 35.7784ZM1391.21 68.5909V67.5909H1390.21V68.5909H1391.21ZM1428.42 68.5909H1429.42V67.5909H1428.42V68.5909ZM1428.42 76.4034V77.4034H1429.42V76.4034H1428.42ZM1391.21 76.4034H1390.21V77.4034H1391.21V76.4034ZM1387.8 96H1378.56V98H1387.8V96ZM1379.5 97.3447L1406.21 24.6174L1404.33 23.928L1377.63 96.6553L1379.5 97.3447ZM1405.27 25.2727H1414.36V23.2727H1405.27V25.2727ZM1413.42 24.6174L1440.13 97.3447L1442 96.6553L1415.3 23.928L1413.42 24.6174ZM1441.06 96H1431.83V98H1441.06V96ZM1432.77 96.6655L1411.04 35.4439L1409.16 36.1129L1430.89 97.3345L1432.77 96.6655ZM1410.1 34.7784H1409.53V36.7784H1410.1V34.7784ZM1408.59 35.4439L1386.86 96.6655L1388.74 97.3345L1410.47 36.1129L1408.59 35.4439ZM1391.21 69.5909H1428.42V67.5909H1391.21V69.5909ZM1427.42 68.5909V76.4034H1429.42V68.5909H1427.42ZM1428.42 75.4034H1391.21V77.4034H1428.42V75.4034ZM1392.21 76.4034V68.5909H1390.21V76.4034H1392.21ZM1452.39 24.2727V23.2727H1451.39V24.2727H1452.39ZM1462.9 24.2727L1463.83 23.8938L1463.58 23.2727H1462.9V24.2727ZM1487.62 84.642L1486.69 85.0209L1486.95 85.642H1487.62V84.642ZM1488.47 84.642V85.642H1489.14L1489.4 85.0209L1488.47 84.642ZM1513.19 24.2727V23.2727H1512.52L1512.26 23.8938L1513.19 24.2727ZM1523.7 24.2727H1524.7V23.2727H1523.7V24.2727ZM1523.7 97V98H1524.7V97H1523.7ZM1515.46 97H1514.46V98H1515.46V97ZM1515.46 41.7443H1516.46V40.7443H1515.46V41.7443ZM1514.75 41.7443V40.7443H1514.08L1513.83 41.3639L1514.75 41.7443ZM1492.02 97V98H1492.69L1492.95 97.3804L1492.02 97ZM1484.07 97L1483.14 97.3804L1483.4 98H1484.07V97ZM1461.34 41.7443L1462.27 41.3639L1462.01 40.7443H1461.34V41.7443ZM1460.63 41.7443V40.7443H1459.63V41.7443H1460.63ZM1460.63 97V98H1461.63V97H1460.63ZM1452.39 97H1451.39V98H1452.39V97ZM1452.39 25.2727H1462.9V23.2727H1452.39V25.2727ZM1461.98 24.6516L1486.69 85.0209L1488.55 84.2632L1463.83 23.8938L1461.98 24.6516ZM1487.62 85.642H1488.47V83.642H1487.62V85.642ZM1489.4 85.0209L1514.11 24.6516L1512.26 23.8938L1487.55 84.2632L1489.4 85.0209ZM1513.19 25.2727H1523.7V23.2727H1513.19V25.2727ZM1522.7 24.2727V97H1524.7V24.2727H1522.7ZM1523.7 96H1515.46V98H1523.7V96ZM1516.46 97V41.7443H1514.46V97H1516.46ZM1515.46 40.7443H1514.75V42.7443H1515.46V40.7443ZM1513.83 41.3639L1491.1 96.6196L1492.95 97.3804L1515.68 42.1247L1513.83 41.3639ZM1492.02 96H1484.07V98H1492.02V96ZM1484.99 96.6196L1462.27 41.3639L1460.42 42.1247L1483.14 97.3804L1484.99 96.6196ZM1461.34 40.7443H1460.63V42.7443H1461.34V40.7443ZM1459.63 41.7443V97H1461.63V41.7443H1459.63ZM1460.63 96H1452.39V98H1460.63V96ZM1453.39 97V24.2727H1451.39V97H1453.39ZM1541.36 97H1540.36V98H1541.36V97ZM1541.36 24.2727V23.2727H1540.36V24.2727H1541.36ZM1550.16 24.2727H1551.16V23.2727H1550.16V24.2727ZM1550.16 89.1875H1549.16V90.1875H1550.16V89.1875ZM1583.97 89.1875H1584.97V88.1875H1583.97V89.1875ZM1583.97 97V98H1584.97V97H1583.97ZM1542.36 97V24.2727H1540.36V97H1542.36ZM1541.36 25.2727H1550.16V23.2727H1541.36V25.2727ZM1549.16 24.2727V89.1875H1551.16V24.2727H1549.16ZM1550.16 90.1875H1583.97V88.1875H1550.16V90.1875ZM1582.97 89.1875V97H1584.97V89.1875H1582.97ZM1583.97 96H1541.36V98H1583.97V96Z" fill="url(#paint3_linear_125_104)" mask="url(#path-7-outside-4_125_104)"/>
</g>
<g opacity="0.5">
<mask id="path-9-outside-5_125_104" maskUnits="userSpaceOnUse" x="1625" y="23" width="366" height="75" fill="black">
<rect fill="white" x="1625" y="23" width="366" height="75"/>
<path d="M1635.79 24.2727L1657.38 85.4943H1658.23L1679.82 24.2727H1689.06L1662.35 97H1653.26L1626.56 24.2727H1635.79ZM1709.19 24.2727V97H1700.38V24.2727H1709.19ZM1726.85 97V24.2727H1751.42C1757.11 24.2727 1761.77 25.2434 1765.42 27.1847C1769.06 29.1023 1771.76 31.7419 1773.51 35.1037C1775.26 38.4654 1776.14 42.2888 1776.14 46.5739C1776.14 50.8589 1775.26 54.6586 1773.51 57.973C1771.76 61.2874 1769.07 63.8916 1765.45 65.7855C1761.83 67.6558 1757.2 68.5909 1751.57 68.5909H1731.68V60.6364H1751.28C1755.16 60.6364 1758.29 60.0682 1760.66 58.9318C1763.05 57.7955 1764.78 56.1856 1765.84 54.1023C1766.93 51.9953 1767.47 49.4858 1767.47 46.5739C1767.47 43.6619 1766.93 41.1169 1765.84 38.9389C1764.75 36.7609 1763.01 35.08 1760.62 33.8963C1758.23 32.6889 1755.07 32.0852 1751.14 32.0852H1735.66V97H1726.85ZM1761.08 64.3295L1778.98 97H1768.75L1751.14 64.3295H1761.08ZM1793.8 97H1784.56L1811.27 24.2727H1820.36L1847.06 97H1837.83L1816.1 35.7784H1815.53L1793.8 97ZM1797.21 68.5909H1834.42V76.4034H1797.21V68.5909ZM1858.39 24.2727H1868.9L1893.62 84.642H1894.47L1919.19 24.2727H1929.7V97H1921.46V41.7443H1920.75L1898.02 97H1890.07L1867.34 41.7443H1866.63V97H1858.39V24.2727ZM1947.36 97V24.2727H1956.16V89.1875H1989.97V97H1947.36Z"/>
</mask>
<path d="M1635.79 24.2727L1636.73 23.9401L1636.5 23.2727H1635.79V24.2727ZM1657.38 85.4943L1656.44 85.8269L1656.67 86.4943H1657.38V85.4943ZM1658.23 85.4943V86.4943H1658.94L1659.18 85.8269L1658.23 85.4943ZM1679.82 24.2727V23.2727H1679.12L1678.88 23.9401L1679.82 24.2727ZM1689.06 24.2727L1690 24.6174L1690.49 23.2727H1689.06V24.2727ZM1662.35 97V98H1663.05L1663.29 97.3447L1662.35 97ZM1653.26 97L1652.32 97.3447L1652.56 98H1653.26V97ZM1626.56 24.2727V23.2727H1625.12L1625.62 24.6174L1626.56 24.2727ZM1634.85 24.6053L1656.44 85.8269L1658.32 85.1617L1636.73 23.9401L1634.85 24.6053ZM1657.38 86.4943H1658.23V84.4943H1657.38V86.4943ZM1659.18 85.8269L1680.77 24.6053L1678.88 23.9401L1657.29 85.1617L1659.18 85.8269ZM1679.82 25.2727H1689.06V23.2727H1679.82V25.2727ZM1688.12 23.928L1661.41 96.6553L1663.29 97.3447L1690 24.6174L1688.12 23.928ZM1662.35 96H1653.26V98H1662.35V96ZM1654.2 96.6553L1627.5 23.928L1625.62 24.6174L1652.32 97.3447L1654.2 96.6553ZM1626.56 25.2727H1635.79V23.2727H1626.56V25.2727ZM1709.19 24.2727H1710.19V23.2727H1709.19V24.2727ZM1709.19 97V98H1710.19V97H1709.19ZM1700.38 97H1699.38V98H1700.38V97ZM1700.38 24.2727V23.2727H1699.38V24.2727H1700.38ZM1708.19 24.2727V97H1710.19V24.2727H1708.19ZM1709.19 96H1700.38V98H1709.19V96ZM1701.38 97V24.2727H1699.38V97H1701.38ZM1700.38 25.2727H1709.19V23.2727H1700.38V25.2727ZM1726.85 97H1725.85V98H1726.85V97ZM1726.85 24.2727V23.2727H1725.85V24.2727H1726.85ZM1765.42 27.1847L1764.95 28.0673L1764.95 28.0697L1765.42 27.1847ZM1773.51 35.1037L1772.62 35.5658L1772.62 35.5658L1773.51 35.1037ZM1773.51 57.973L1772.63 57.5057L1772.63 57.5057L1773.51 57.973ZM1765.45 65.7855L1765.91 66.6741L1765.91 66.6717L1765.45 65.7855ZM1731.68 68.5909H1730.68V69.5909H1731.68V68.5909ZM1731.68 60.6364V59.6364H1730.68V60.6364H1731.68ZM1760.66 58.9318L1760.23 58.0286L1760.22 58.0303L1760.66 58.9318ZM1765.84 54.1023L1764.95 53.6431L1764.95 53.647L1765.84 54.1023ZM1760.62 33.8963L1760.17 34.789L1760.18 34.7925L1760.62 33.8963ZM1735.66 32.0852V31.0852H1734.66V32.0852H1735.66ZM1735.66 97V98H1736.66V97H1735.66ZM1761.08 64.3295L1761.96 63.8491L1761.68 63.3295H1761.08V64.3295ZM1778.98 97V98H1780.67L1779.86 96.5195L1778.98 97ZM1768.75 97L1767.87 97.4746L1768.16 98H1768.75V97ZM1751.14 64.3295V63.3295H1749.46L1750.26 64.8041L1751.14 64.3295ZM1727.85 97V24.2727H1725.85V97H1727.85ZM1726.85 25.2727H1751.42V23.2727H1726.85V25.2727ZM1751.42 25.2727C1757 25.2727 1761.49 26.2265 1764.95 28.0673L1765.89 26.302C1762.05 24.2602 1757.21 23.2727 1751.42 23.2727V25.2727ZM1764.95 28.0697C1768.43 29.9011 1770.98 32.4004 1772.62 35.5658L1774.4 34.6416C1772.54 31.0835 1769.69 28.3034 1765.88 26.2996L1764.95 28.0697ZM1772.62 35.5658C1774.29 38.7672 1775.14 42.4285 1775.14 46.5739H1777.14C1777.14 42.1491 1776.23 38.1637 1774.4 34.6416L1772.62 35.5658ZM1775.14 46.5739C1775.14 50.7195 1774.29 54.3547 1772.63 57.5057L1774.4 58.4403C1776.23 54.9625 1777.14 50.9983 1777.14 46.5739H1775.14ZM1772.63 57.5057C1770.98 60.6249 1768.45 63.0903 1764.99 64.8993L1765.91 66.6717C1769.7 64.6928 1772.54 61.9499 1774.4 58.4403L1772.63 57.5057ZM1764.99 64.897C1761.56 66.6714 1757.1 67.5909 1751.57 67.5909V69.5909C1757.3 69.5909 1762.1 68.6401 1765.91 66.6741L1764.99 64.897ZM1751.57 67.5909H1731.68V69.5909H1751.57V67.5909ZM1732.68 68.5909V60.6364H1730.68V68.5909H1732.68ZM1731.68 61.6364H1751.28V59.6364H1731.68V61.6364ZM1751.28 61.6364C1755.25 61.6364 1758.54 61.058 1761.09 59.8333L1760.22 58.0303C1758.04 59.0784 1755.08 59.6364 1751.28 59.6364V61.6364ZM1761.09 59.835C1763.65 58.6172 1765.55 56.8623 1766.73 54.5576L1764.95 53.647C1764 55.5089 1762.45 56.9737 1760.23 58.0286L1761.09 59.835ZM1766.73 54.5614C1767.91 52.2837 1768.47 49.6097 1768.47 46.5739H1766.47C1766.47 49.3619 1765.95 51.7068 1764.95 53.6431L1766.73 54.5614ZM1768.47 46.5739C1768.47 43.5368 1767.91 40.8332 1766.74 38.4917L1764.95 39.3861C1765.95 41.4007 1766.47 43.7871 1766.47 46.5739H1768.47ZM1766.74 38.4917C1765.54 36.1001 1763.63 34.2706 1761.06 33.0001L1760.18 34.7925C1762.39 35.8894 1763.96 37.4217 1764.95 39.3861L1766.74 38.4917ZM1761.07 33.0037C1758.49 31.7005 1755.16 31.0852 1751.14 31.0852V33.0852C1754.98 33.0852 1757.97 33.6773 1760.17 34.789L1761.07 33.0037ZM1751.14 31.0852H1735.66V33.0852H1751.14V31.0852ZM1734.66 32.0852V97H1736.66V32.0852H1734.66ZM1735.66 96H1726.85V98H1735.66V96ZM1760.21 64.81L1778.1 97.4805L1779.86 96.5195L1761.96 63.8491L1760.21 64.81ZM1778.98 96H1768.75V98H1778.98V96ZM1769.63 96.5254L1752.02 63.855L1750.26 64.8041L1767.87 97.4746L1769.63 96.5254ZM1751.14 65.3295H1761.08V63.3295H1751.14V65.3295ZM1793.8 97V98H1794.5L1794.74 97.3345L1793.8 97ZM1784.56 97L1783.63 96.6553L1783.13 98H1784.56V97ZM1811.27 24.2727V23.2727H1810.57L1810.33 23.928L1811.27 24.2727ZM1820.36 24.2727L1821.3 23.928L1821.06 23.2727H1820.36V24.2727ZM1847.06 97V98H1848.5L1848 96.6553L1847.06 97ZM1837.83 97L1836.89 97.3345L1837.13 98H1837.83V97ZM1816.1 35.7784L1817.04 35.4439L1816.8 34.7784H1816.1V35.7784ZM1815.53 35.7784V34.7784H1814.82L1814.59 35.4439L1815.53 35.7784ZM1797.21 68.5909V67.5909H1796.21V68.5909H1797.21ZM1834.42 68.5909H1835.42V67.5909H1834.42V68.5909ZM1834.42 76.4034V77.4034H1835.42V76.4034H1834.42ZM1797.21 76.4034H1796.21V77.4034H1797.21V76.4034ZM1793.8 96H1784.56V98H1793.8V96ZM1785.5 97.3447L1812.21 24.6174L1810.33 23.928L1783.63 96.6553L1785.5 97.3447ZM1811.27 25.2727H1820.36V23.2727H1811.27V25.2727ZM1819.42 24.6174L1846.13 97.3447L1848 96.6553L1821.3 23.928L1819.42 24.6174ZM1847.06 96H1837.83V98H1847.06V96ZM1838.77 96.6655L1817.04 35.4439L1815.16 36.1129L1836.89 97.3345L1838.77 96.6655ZM1816.1 34.7784H1815.53V36.7784H1816.1V34.7784ZM1814.59 35.4439L1792.86 96.6655L1794.74 97.3345L1816.47 36.1129L1814.59 35.4439ZM1797.21 69.5909H1834.42V67.5909H1797.21V69.5909ZM1833.42 68.5909V76.4034H1835.42V68.5909H1833.42ZM1834.42 75.4034H1797.21V77.4034H1834.42V75.4034ZM1798.21 76.4034V68.5909H1796.21V76.4034H1798.21ZM1858.39 24.2727V23.2727H1857.39V24.2727H1858.39ZM1868.9 24.2727L1869.83 23.8938L1869.58 23.2727H1868.9V24.2727ZM1893.62 84.642L1892.69 85.0209L1892.95 85.642H1893.62V84.642ZM1894.47 84.642V85.642H1895.14L1895.4 85.0209L1894.47 84.642ZM1919.19 24.2727V23.2727H1918.52L1918.26 23.8938L1919.19 24.2727ZM1929.7 24.2727H1930.7V23.2727H1929.7V24.2727ZM1929.7 97V98H1930.7V97H1929.7ZM1921.46 97H1920.46V98H1921.46V97ZM1921.46 41.7443H1922.46V40.7443H1921.46V41.7443ZM1920.75 41.7443V40.7443H1920.08L1919.83 41.3639L1920.75 41.7443ZM1898.02 97V98H1898.69L1898.95 97.3804L1898.02 97ZM1890.07 97L1889.14 97.3804L1889.4 98H1890.07V97ZM1867.34 41.7443L1868.27 41.3639L1868.01 40.7443H1867.34V41.7443ZM1866.63 41.7443V40.7443H1865.63V41.7443H1866.63ZM1866.63 97V98H1867.63V97H1866.63ZM1858.39 97H1857.39V98H1858.39V97ZM1858.39 25.2727H1868.9V23.2727H1858.39V25.2727ZM1867.98 24.6516L1892.69 85.0209L1894.55 84.2632L1869.83 23.8938L1867.98 24.6516ZM1893.62 85.642H1894.47V83.642H1893.62V85.642ZM1895.4 85.0209L1920.11 24.6516L1918.26 23.8938L1893.55 84.2632L1895.4 85.0209ZM1919.19 25.2727H1929.7V23.2727H1919.19V25.2727ZM1928.7 24.2727V97H1930.7V24.2727H1928.7ZM1929.7 96H1921.46V98H1929.7V96ZM1922.46 97V41.7443H1920.46V97H1922.46ZM1921.46 40.7443H1920.75V42.7443H1921.46V40.7443ZM1919.83 41.3639L1897.1 96.6196L1898.95 97.3804L1921.68 42.1247L1919.83 41.3639ZM1898.02 96H1890.07V98H1898.02V96ZM1890.99 96.6196L1868.27 41.3639L1866.42 42.1247L1889.14 97.3804L1890.99 96.6196ZM1867.34 40.7443H1866.63V42.7443H1867.34V40.7443ZM1865.63 41.7443V97H1867.63V41.7443H1865.63ZM1866.63 96H1858.39V98H1866.63V96ZM1859.39 97V24.2727H1857.39V97H1859.39ZM1947.36 97H1946.36V98H1947.36V97ZM1947.36 24.2727V23.2727H1946.36V24.2727H1947.36ZM1956.16 24.2727H1957.16V23.2727H1956.16V24.2727ZM1956.16 89.1875H1955.16V90.1875H1956.16V89.1875ZM1989.97 89.1875H1990.97V88.1875H1989.97V89.1875ZM1989.97 97V98H1990.97V97H1989.97ZM1948.36 97V24.2727H1946.36V97H1948.36ZM1947.36 25.2727H1956.16V23.2727H1947.36V25.2727ZM1955.16 24.2727V89.1875H1957.16V24.2727H1955.16ZM1956.16 90.1875H1989.97V88.1875H1956.16V90.1875ZM1988.97 89.1875V97H1990.97V89.1875H1988.97ZM1989.97 96H1947.36V98H1989.97V96Z" fill="url(#paint4_linear_125_104)" mask="url(#path-9-outside-5_125_104)"/>
</g>
<g opacity="0.5">
<mask id="path-11-outside-6_125_104" maskUnits="userSpaceOnUse" x="2031" y="23" width="366" height="75" fill="black">
<rect fill="white" x="2031" y="23" width="366" height="75"/>
<path d="M2041.79 24.2727L2063.38 85.4943H2064.23L2085.82 24.2727H2095.06L2068.35 97H2059.26L2032.56 24.2727H2041.79ZM2115.19 24.2727V97H2106.38V24.2727H2115.19ZM2132.85 97V24.2727H2157.42C2163.11 24.2727 2167.77 25.2434 2171.42 27.1847C2175.06 29.1023 2177.76 31.7419 2179.51 35.1037C2181.26 38.4654 2182.14 42.2888 2182.14 46.5739C2182.14 50.8589 2181.26 54.6586 2179.51 57.973C2177.76 61.2874 2175.07 63.8916 2171.45 65.7855C2167.83 67.6558 2163.2 68.5909 2157.57 68.5909H2137.68V60.6364H2157.28C2161.16 60.6364 2164.29 60.0682 2166.66 58.9318C2169.05 57.7955 2170.78 56.1856 2171.84 54.1023C2172.93 51.9953 2173.47 49.4858 2173.47 46.5739C2173.47 43.6619 2172.93 41.1169 2171.84 38.9389C2170.75 36.7609 2169.01 35.08 2166.62 33.8963C2164.23 32.6889 2161.07 32.0852 2157.14 32.0852H2141.66V97H2132.85ZM2167.08 64.3295L2184.98 97H2174.75L2157.14 64.3295H2167.08ZM2199.8 97H2190.56L2217.27 24.2727H2226.36L2253.06 97H2243.83L2222.1 35.7784H2221.53L2199.8 97ZM2203.21 68.5909H2240.42V76.4034H2203.21V68.5909ZM2264.39 24.2727H2274.9L2299.62 84.642H2300.47L2325.19 24.2727H2335.7V97H2327.46V41.7443H2326.75L2304.02 97H2296.07L2273.34 41.7443H2272.63V97H2264.39V24.2727ZM2353.36 97V24.2727H2362.16V89.1875H2395.97V97H2353.36Z"/>
</mask>
<path d="M2041.79 24.2727L2042.73 23.9401L2042.5 23.2727H2041.79V24.2727ZM2063.38 85.4943L2062.44 85.8269L2062.67 86.4943H2063.38V85.4943ZM2064.23 85.4943V86.4943H2064.94L2065.18 85.8269L2064.23 85.4943ZM2085.82 24.2727V23.2727H2085.12L2084.88 23.9401L2085.82 24.2727ZM2095.06 24.2727L2096 24.6174L2096.49 23.2727H2095.06V24.2727ZM2068.35 97V98H2069.05L2069.29 97.3447L2068.35 97ZM2059.26 97L2058.32 97.3447L2058.56 98H2059.26V97ZM2032.56 24.2727V23.2727H2031.12L2031.62 24.6174L2032.56 24.2727ZM2040.85 24.6053L2062.44 85.8269L2064.32 85.1617L2042.73 23.9401L2040.85 24.6053ZM2063.38 86.4943H2064.23V84.4943H2063.38V86.4943ZM2065.18 85.8269L2086.77 24.6053L2084.88 23.9401L2063.29 85.1617L2065.18 85.8269ZM2085.82 25.2727H2095.06V23.2727H2085.82V25.2727ZM2094.12 23.928L2067.41 96.6553L2069.29 97.3447L2096 24.6174L2094.12 23.928ZM2068.35 96H2059.26V98H2068.35V96ZM2060.2 96.6553L2033.5 23.928L2031.62 24.6174L2058.32 97.3447L2060.2 96.6553ZM2032.56 25.2727H2041.79V23.2727H2032.56V25.2727ZM2115.19 24.2727H2116.19V23.2727H2115.19V24.2727ZM2115.19 97V98H2116.19V97H2115.19ZM2106.38 97H2105.38V98H2106.38V97ZM2106.38 24.2727V23.2727H2105.38V24.2727H2106.38ZM2114.19 24.2727V97H2116.19V24.2727H2114.19ZM2115.19 96H2106.38V98H2115.19V96ZM2107.38 97V24.2727H2105.38V97H2107.38ZM2106.38 25.2727H2115.19V23.2727H2106.38V25.2727ZM2132.85 97H2131.85V98H2132.85V97ZM2132.85 24.2727V23.2727H2131.85V24.2727H2132.85ZM2171.42 27.1847L2170.95 28.0673L2170.95 28.0697L2171.42 27.1847ZM2179.51 35.1037L2178.62 35.5658L2178.62 35.5658L2179.51 35.1037ZM2179.51 57.973L2178.63 57.5057L2178.63 57.5057L2179.51 57.973ZM2171.45 65.7855L2171.91 66.6741L2171.91 66.6717L2171.45 65.7855ZM2137.68 68.5909H2136.68V69.5909H2137.68V68.5909ZM2137.68 60.6364V59.6364H2136.68V60.6364H2137.68ZM2166.66 58.9318L2166.23 58.0286L2166.22 58.0303L2166.66 58.9318ZM2171.84 54.1023L2170.95 53.6431L2170.95 53.647L2171.84 54.1023ZM2166.62 33.8963L2166.17 34.789L2166.18 34.7925L2166.62 33.8963ZM2141.66 32.0852V31.0852H2140.66V32.0852H2141.66ZM2141.66 97V98H2142.66V97H2141.66ZM2167.08 64.3295L2167.96 63.8491L2167.68 63.3295H2167.08V64.3295ZM2184.98 97V98H2186.67L2185.86 96.5195L2184.98 97ZM2174.75 97L2173.87 97.4746L2174.16 98H2174.75V97ZM2157.14 64.3295V63.3295H2155.46L2156.26 64.8041L2157.14 64.3295ZM2133.85 97V24.2727H2131.85V97H2133.85ZM2132.85 25.2727H2157.42V23.2727H2132.85V25.2727ZM2157.42 25.2727C2163 25.2727 2167.49 26.2265 2170.95 28.0673L2171.89 26.302C2168.05 24.2602 2163.21 23.2727 2157.42 23.2727V25.2727ZM2170.95 28.0697C2174.43 29.9011 2176.98 32.4004 2178.62 35.5658L2180.4 34.6416C2178.54 31.0835 2175.69 28.3034 2171.88 26.2996L2170.95 28.0697ZM2178.62 35.5658C2180.29 38.7672 2181.14 42.4285 2181.14 46.5739H2183.14C2183.14 42.1491 2182.23 38.1637 2180.4 34.6416L2178.62 35.5658ZM2181.14 46.5739C2181.14 50.7195 2180.29 54.3547 2178.63 57.5057L2180.4 58.4403C2182.23 54.9625 2183.14 50.9983 2183.14 46.5739H2181.14ZM2178.63 57.5057C2176.98 60.6249 2174.45 63.0903 2170.99 64.8993L2171.91 66.6717C2175.7 64.6928 2178.54 61.9499 2180.4 58.4403L2178.63 57.5057ZM2170.99 64.897C2167.56 66.6714 2163.1 67.5909 2157.57 67.5909V69.5909C2163.3 69.5909 2168.1 68.6401 2171.91 66.6741L2170.99 64.897ZM2157.57 67.5909H2137.68V69.5909H2157.57V67.5909ZM2138.68 68.5909V60.6364H2136.68V68.5909H2138.68ZM2137.68 61.6364H2157.28V59.6364H2137.68V61.6364ZM2157.28 61.6364C2161.25 61.6364 2164.54 61.058 2167.09 59.8333L2166.22 58.0303C2164.04 59.0784 2161.08 59.6364 2157.28 59.6364V61.6364ZM2167.09 59.835C2169.65 58.6172 2171.55 56.8623 2172.73 54.5576L2170.95 53.647C2170 55.5089 2168.45 56.9737 2166.23 58.0286L2167.09 59.835ZM2172.73 54.5614C2173.91 52.2837 2174.47 49.6097 2174.47 46.5739H2172.47C2172.47 49.3619 2171.95 51.7068 2170.95 53.6431L2172.73 54.5614ZM2174.47 46.5739C2174.47 43.5368 2173.91 40.8332 2172.74 38.4917L2170.95 39.3861C2171.95 41.4007 2172.47 43.7871 2172.47 46.5739H2174.47ZM2172.74 38.4917C2171.54 36.1001 2169.63 34.2706 2167.06 33.0001L2166.18 34.7925C2168.39 35.8894 2169.96 37.4217 2170.95 39.3861L2172.74 38.4917ZM2167.07 33.0037C2164.49 31.7005 2161.16 31.0852 2157.14 31.0852V33.0852C2160.98 33.0852 2163.97 33.6773 2166.17 34.789L2167.07 33.0037ZM2157.14 31.0852H2141.66V33.0852H2157.14V31.0852ZM2140.66 32.0852V97H2142.66V32.0852H2140.66ZM2141.66 96H2132.85V98H2141.66V96ZM2166.21 64.81L2184.1 97.4805L2185.86 96.5195L2167.96 63.8491L2166.21 64.81ZM2184.98 96H2174.75V98H2184.98V96ZM2175.63 96.5254L2158.02 63.855L2156.26 64.8041L2173.87 97.4746L2175.63 96.5254ZM2157.14 65.3295H2167.08V63.3295H2157.14V65.3295ZM2199.8 97V98H2200.5L2200.74 97.3345L2199.8 97ZM2190.56 97L2189.63 96.6553L2189.13 98H2190.56V97ZM2217.27 24.2727V23.2727H2216.57L2216.33 23.928L2217.27 24.2727ZM2226.36 24.2727L2227.3 23.928L2227.06 23.2727H2226.36V24.2727ZM2253.06 97V98H2254.5L2254 96.6553L2253.06 97ZM2243.83 97L2242.89 97.3345L2243.13 98H2243.83V97ZM2222.1 35.7784L2223.04 35.4439L2222.8 34.7784H2222.1V35.7784ZM2221.53 35.7784V34.7784H2220.82L2220.59 35.4439L2221.53 35.7784ZM2203.21 68.5909V67.5909H2202.21V68.5909H2203.21ZM2240.42 68.5909H2241.42V67.5909H2240.42V68.5909ZM2240.42 76.4034V77.4034H2241.42V76.4034H2240.42ZM2203.21 76.4034H2202.21V77.4034H2203.21V76.4034ZM2199.8 96H2190.56V98H2199.8V96ZM2191.5 97.3447L2218.21 24.6174L2216.33 23.928L2189.63 96.6553L2191.5 97.3447ZM2217.27 25.2727H2226.36V23.2727H2217.27V25.2727ZM2225.42 24.6174L2252.13 97.3447L2254 96.6553L2227.3 23.928L2225.42 24.6174ZM2253.06 96H2243.83V98H2253.06V96ZM2244.77 96.6655L2223.04 35.4439L2221.16 36.1129L2242.89 97.3345L2244.77 96.6655ZM2222.1 34.7784H2221.53V36.7784H2222.1V34.7784ZM2220.59 35.4439L2198.86 96.6655L2200.74 97.3345L2222.47 36.1129L2220.59 35.4439ZM2203.21 69.5909H2240.42V67.5909H2203.21V69.5909ZM2239.42 68.5909V76.4034H2241.42V68.5909H2239.42ZM2240.42 75.4034H2203.21V77.4034H2240.42V75.4034ZM2204.21 76.4034V68.5909H2202.21V76.4034H2204.21ZM2264.39 24.2727V23.2727H2263.39V24.2727H2264.39ZM2274.9 24.2727L2275.83 23.8938L2275.58 23.2727H2274.9V24.2727ZM2299.62 84.642L2298.69 85.0209L2298.95 85.642H2299.62V84.642ZM2300.47 84.642V85.642H2301.14L2301.4 85.0209L2300.47 84.642ZM2325.19 24.2727V23.2727H2324.52L2324.26 23.8938L2325.19 24.2727ZM2335.7 24.2727H2336.7V23.2727H2335.7V24.2727ZM2335.7 97V98H2336.7V97H2335.7ZM2327.46 97H2326.46V98H2327.46V97ZM2327.46 41.7443H2328.46V40.7443H2327.46V41.7443ZM2326.75 41.7443V40.7443H2326.08L2325.83 41.3639L2326.75 41.7443ZM2304.02 97V98H2304.69L2304.95 97.3804L2304.02 97ZM2296.07 97L2295.14 97.3804L2295.4 98H2296.07V97ZM2273.34 41.7443L2274.27 41.3639L2274.01 40.7443H2273.34V41.7443ZM2272.63 41.7443V40.7443H2271.63V41.7443H2272.63ZM2272.63 97V98H2273.63V97H2272.63ZM2264.39 97H2263.39V98H2264.39V97ZM2264.39 25.2727H2274.9V23.2727H2264.39V25.2727ZM2273.98 24.6516L2298.69 85.0209L2300.55 84.2632L2275.83 23.8938L2273.98 24.6516ZM2299.62 85.642H2300.47V83.642H2299.62V85.642ZM2301.4 85.0209L2326.11 24.6516L2324.26 23.8938L2299.55 84.2632L2301.4 85.0209ZM2325.19 25.2727H2335.7V23.2727H2325.19V25.2727ZM2334.7 24.2727V97H2336.7V24.2727H2334.7ZM2335.7 96H2327.46V98H2335.7V96ZM2328.46 97V41.7443H2326.46V97H2328.46ZM2327.46 40.7443H2326.75V42.7443H2327.46V40.7443ZM2325.83 41.3639L2303.1 96.6196L2304.95 97.3804L2327.68 42.1247L2325.83 41.3639ZM2304.02 96H2296.07V98H2304.02V96ZM2296.99 96.6196L2274.27 41.3639L2272.42 42.1247L2295.14 97.3804L2296.99 96.6196ZM2273.34 40.7443H2272.63V42.7443H2273.34V40.7443ZM2271.63 41.7443V97H2273.63V41.7443H2271.63ZM2272.63 96H2264.39V98H2272.63V96ZM2265.39 97V24.2727H2263.39V97H2265.39ZM2353.36 97H2352.36V98H2353.36V97ZM2353.36 24.2727V23.2727H2352.36V24.2727H2353.36ZM2362.16 24.2727H2363.16V23.2727H2362.16V24.2727ZM2362.16 89.1875H2361.16V90.1875H2362.16V89.1875ZM2395.97 89.1875H2396.97V88.1875H2395.97V89.1875ZM2395.97 97V98H2396.97V97H2395.97ZM2354.36 97V24.2727H2352.36V97H2354.36ZM2353.36 25.2727H2362.16V23.2727H2353.36V25.2727ZM2361.16 24.2727V89.1875H2363.16V24.2727H2361.16ZM2362.16 90.1875H2395.97V88.1875H2362.16V90.1875ZM2394.97 89.1875V97H2396.97V89.1875H2394.97ZM2395.97 96H2353.36V98H2395.97V96Z" fill="url(#paint5_linear_125_104)" mask="url(#path-11-outside-6_125_104)"/>
</g>
<g opacity="0.5">
<mask id="path-13-outside-7_125_104" maskUnits="userSpaceOnUse" x="2437" y="23" width="366" height="75" fill="black">
<rect fill="white" x="2437" y="23" width="366" height="75"/>
<path d="M2447.79 24.2727L2469.38 85.4943H2470.23L2491.82 24.2727H2501.06L2474.35 97H2465.26L2438.56 24.2727H2447.79ZM2521.19 24.2727V97H2512.38V24.2727H2521.19ZM2538.85 97V24.2727H2563.42C2569.11 24.2727 2573.77 25.2434 2577.42 27.1847C2581.06 29.1023 2583.76 31.7419 2585.51 35.1037C2587.26 38.4654 2588.14 42.2888 2588.14 46.5739C2588.14 50.8589 2587.26 54.6586 2585.51 57.973C2583.76 61.2874 2581.07 63.8916 2577.45 65.7855C2573.83 67.6558 2569.2 68.5909 2563.57 68.5909H2543.68V60.6364H2563.28C2567.16 60.6364 2570.29 60.0682 2572.66 58.9318C2575.05 57.7955 2576.78 56.1856 2577.84 54.1023C2578.93 51.9953 2579.47 49.4858 2579.47 46.5739C2579.47 43.6619 2578.93 41.1169 2577.84 38.9389C2576.75 36.7609 2575.01 35.08 2572.62 33.8963C2570.23 32.6889 2567.07 32.0852 2563.14 32.0852H2547.66V97H2538.85ZM2573.08 64.3295L2590.98 97H2580.75L2563.14 64.3295H2573.08ZM2605.8 97H2596.56L2623.27 24.2727H2632.36L2659.06 97H2649.83L2628.1 35.7784H2627.53L2605.8 97ZM2609.21 68.5909H2646.42V76.4034H2609.21V68.5909ZM2670.39 24.2727H2680.9L2705.62 84.642H2706.47L2731.19 24.2727H2741.7V97H2733.46V41.7443H2732.75L2710.02 97H2702.07L2679.34 41.7443H2678.63V97H2670.39V24.2727ZM2759.36 97V24.2727H2768.16V89.1875H2801.97V97H2759.36Z"/>
</mask>
<path d="M2447.79 24.2727L2448.73 23.9401L2448.5 23.2727H2447.79V24.2727ZM2469.38 85.4943L2468.44 85.8269L2468.67 86.4943H2469.38V85.4943ZM2470.23 85.4943V86.4943H2470.94L2471.18 85.8269L2470.23 85.4943ZM2491.82 24.2727V23.2727H2491.12L2490.88 23.9401L2491.82 24.2727ZM2501.06 24.2727L2502 24.6174L2502.49 23.2727H2501.06V24.2727ZM2474.35 97V98H2475.05L2475.29 97.3447L2474.35 97ZM2465.26 97L2464.32 97.3447L2464.56 98H2465.26V97ZM2438.56 24.2727V23.2727H2437.12L2437.62 24.6174L2438.56 24.2727ZM2446.85 24.6053L2468.44 85.8269L2470.32 85.1617L2448.73 23.9401L2446.85 24.6053ZM2469.38 86.4943H2470.23V84.4943H2469.38V86.4943ZM2471.18 85.8269L2492.77 24.6053L2490.88 23.9401L2469.29 85.1617L2471.18 85.8269ZM2491.82 25.2727H2501.06V23.2727H2491.82V25.2727ZM2500.12 23.928L2473.41 96.6553L2475.29 97.3447L2502 24.6174L2500.12 23.928ZM2474.35 96H2465.26V98H2474.35V96ZM2466.2 96.6553L2439.5 23.928L2437.62 24.6174L2464.32 97.3447L2466.2 96.6553ZM2438.56 25.2727H2447.79V23.2727H2438.56V25.2727ZM2521.19 24.2727H2522.19V23.2727H2521.19V24.2727ZM2521.19 97V98H2522.19V97H2521.19ZM2512.38 97H2511.38V98H2512.38V97ZM2512.38 24.2727V23.2727H2511.38V24.2727H2512.38ZM2520.19 24.2727V97H2522.19V24.2727H2520.19ZM2521.19 96H2512.38V98H2521.19V96ZM2513.38 97V24.2727H2511.38V97H2513.38ZM2512.38 25.2727H2521.19V23.2727H2512.38V25.2727ZM2538.85 97H2537.85V98H2538.85V97ZM2538.85 24.2727V23.2727H2537.85V24.2727H2538.85ZM2577.42 27.1847L2576.95 28.0673L2576.95 28.0697L2577.42 27.1847ZM2585.51 35.1037L2584.62 35.5658L2584.62 35.5658L2585.51 35.1037ZM2585.51 57.973L2584.63 57.5057L2584.63 57.5057L2585.51 57.973ZM2577.45 65.7855L2577.91 66.6741L2577.91 66.6717L2577.45 65.7855ZM2543.68 68.5909H2542.68V69.5909H2543.68V68.5909ZM2543.68 60.6364V59.6364H2542.68V60.6364H2543.68ZM2572.66 58.9318L2572.23 58.0286L2572.22 58.0303L2572.66 58.9318ZM2577.84 54.1023L2576.95 53.6431L2576.95 53.647L2577.84 54.1023ZM2572.62 33.8963L2572.17 34.789L2572.18 34.7925L2572.62 33.8963ZM2547.66 32.0852V31.0852H2546.66V32.0852H2547.66ZM2547.66 97V98H2548.66V97H2547.66ZM2573.08 64.3295L2573.96 63.8491L2573.68 63.3295H2573.08V64.3295ZM2590.98 97V98H2592.67L2591.86 96.5195L2590.98 97ZM2580.75 97L2579.87 97.4746L2580.16 98H2580.75V97ZM2563.14 64.3295V63.3295H2561.46L2562.26 64.8041L2563.14 64.3295ZM2539.85 97V24.2727H2537.85V97H2539.85ZM2538.85 25.2727H2563.42V23.2727H2538.85V25.2727ZM2563.42 25.2727C2569 25.2727 2573.49 26.2265 2576.95 28.0673L2577.89 26.302C2574.05 24.2602 2569.21 23.2727 2563.42 23.2727V25.2727ZM2576.95 28.0697C2580.43 29.9011 2582.98 32.4004 2584.62 35.5658L2586.4 34.6416C2584.54 31.0835 2581.69 28.3034 2577.88 26.2996L2576.95 28.0697ZM2584.62 35.5658C2586.29 38.7672 2587.14 42.4285 2587.14 46.5739H2589.14C2589.14 42.1491 2588.23 38.1637 2586.4 34.6416L2584.62 35.5658ZM2587.14 46.5739C2587.14 50.7195 2586.29 54.3547 2584.63 57.5057L2586.4 58.4403C2588.23 54.9625 2589.14 50.9983 2589.14 46.5739H2587.14ZM2584.63 57.5057C2582.98 60.6249 2580.45 63.0903 2576.99 64.8993L2577.91 66.6717C2581.7 64.6928 2584.54 61.9499 2586.4 58.4403L2584.63 57.5057ZM2576.99 64.897C2573.56 66.6714 2569.1 67.5909 2563.57 67.5909V69.5909C2569.3 69.5909 2574.1 68.6401 2577.91 66.6741L2576.99 64.897ZM2563.57 67.5909H2543.68V69.5909H2563.57V67.5909ZM2544.68 68.5909V60.6364H2542.68V68.5909H2544.68ZM2543.68 61.6364H2563.28V59.6364H2543.68V61.6364ZM2563.28 61.6364C2567.25 61.6364 2570.54 61.058 2573.09 59.8333L2572.22 58.0303C2570.04 59.0784 2567.08 59.6364 2563.28 59.6364V61.6364ZM2573.09 59.835C2575.65 58.6172 2577.55 56.8623 2578.73 54.5576L2576.95 53.647C2576 55.5089 2574.45 56.9737 2572.23 58.0286L2573.09 59.835ZM2578.73 54.5614C2579.91 52.2837 2580.47 49.6097 2580.47 46.5739H2578.47C2578.47 49.3619 2577.95 51.7068 2576.95 53.6431L2578.73 54.5614ZM2580.47 46.5739C2580.47 43.5368 2579.91 40.8332 2578.74 38.4917L2576.95 39.3861C2577.95 41.4007 2578.47 43.7871 2578.47 46.5739H2580.47ZM2578.74 38.4917C2577.54 36.1001 2575.63 34.2706 2573.06 33.0001L2572.18 34.7925C2574.39 35.8894 2575.96 37.4217 2576.95 39.3861L2578.74 38.4917ZM2573.07 33.0037C2570.49 31.7005 2567.16 31.0852 2563.14 31.0852V33.0852C2566.98 33.0852 2569.97 33.6773 2572.17 34.789L2573.07 33.0037ZM2563.14 31.0852H2547.66V33.0852H2563.14V31.0852ZM2546.66 32.0852V97H2548.66V32.0852H2546.66ZM2547.66 96H2538.85V98H2547.66V96ZM2572.21 64.81L2590.1 97.4805L2591.86 96.5195L2573.96 63.8491L2572.21 64.81ZM2590.98 96H2580.75V98H2590.98V96ZM2581.63 96.5254L2564.02 63.855L2562.26 64.8041L2579.87 97.4746L2581.63 96.5254ZM2563.14 65.3295H2573.08V63.3295H2563.14V65.3295ZM2605.8 97V98H2606.5L2606.74 97.3345L2605.8 97ZM2596.56 97L2595.63 96.6553L2595.13 98H2596.56V97ZM2623.27 24.2727V23.2727H2622.57L2622.33 23.928L2623.27 24.2727ZM2632.36 24.2727L2633.3 23.928L2633.06 23.2727H2632.36V24.2727ZM2659.06 97V98H2660.5L2660 96.6553L2659.06 97ZM2649.83 97L2648.89 97.3345L2649.13 98H2649.83V97ZM2628.1 35.7784L2629.04 35.4439L2628.8 34.7784H2628.1V35.7784ZM2627.53 35.7784V34.7784H2626.82L2626.59 35.4439L2627.53 35.7784ZM2609.21 68.5909V67.5909H2608.21V68.5909H2609.21ZM2646.42 68.5909H2647.42V67.5909H2646.42V68.5909ZM2646.42 76.4034V77.4034H2647.42V76.4034H2646.42ZM2609.21 76.4034H2608.21V77.4034H2609.21V76.4034ZM2605.8 96H2596.56V98H2605.8V96ZM2597.5 97.3447L2624.21 24.6174L2622.33 23.928L2595.63 96.6553L2597.5 97.3447ZM2623.27 25.2727H2632.36V23.2727H2623.27V25.2727ZM2631.42 24.6174L2658.13 97.3447L2660 96.6553L2633.3 23.928L2631.42 24.6174ZM2659.06 96H2649.83V98H2659.06V96ZM2650.77 96.6655L2629.04 35.4439L2627.16 36.1129L2648.89 97.3345L2650.77 96.6655ZM2628.1 34.7784H2627.53V36.7784H2628.1V34.7784ZM2626.59 35.4439L2604.86 96.6655L2606.74 97.3345L2628.47 36.1129L2626.59 35.4439ZM2609.21 69.5909H2646.42V67.5909H2609.21V69.5909ZM2645.42 68.5909V76.4034H2647.42V68.5909H2645.42ZM2646.42 75.4034H2609.21V77.4034H2646.42V75.4034ZM2610.21 76.4034V68.5909H2608.21V76.4034H2610.21ZM2670.39 24.2727V23.2727H2669.39V24.2727H2670.39ZM2680.9 24.2727L2681.83 23.8938L2681.58 23.2727H2680.9V24.2727ZM2705.62 84.642L2704.69 85.0209L2704.95 85.642H2705.62V84.642ZM2706.47 84.642V85.642H2707.14L2707.4 85.0209L2706.47 84.642ZM2731.19 24.2727V23.2727H2730.52L2730.26 23.8938L2731.19 24.2727ZM2741.7 24.2727H2742.7V23.2727H2741.7V24.2727ZM2741.7 97V98H2742.7V97H2741.7ZM2733.46 97H2732.46V98H2733.46V97ZM2733.46 41.7443H2734.46V40.7443H2733.46V41.7443ZM2732.75 41.7443V40.7443H2732.08L2731.83 41.3639L2732.75 41.7443ZM2710.02 97V98H2710.69L2710.95 97.3804L2710.02 97ZM2702.07 97L2701.14 97.3804L2701.4 98H2702.07V97ZM2679.34 41.7443L2680.27 41.3639L2680.01 40.7443H2679.34V41.7443ZM2678.63 41.7443V40.7443H2677.63V41.7443H2678.63ZM2678.63 97V98H2679.63V97H2678.63ZM2670.39 97H2669.39V98H2670.39V97ZM2670.39 25.2727H2680.9V23.2727H2670.39V25.2727ZM2679.98 24.6516L2704.69 85.0209L2706.55 84.2632L2681.83 23.8938L2679.98 24.6516ZM2705.62 85.642H2706.47V83.642H2705.62V85.642ZM2707.4 85.0209L2732.11 24.6516L2730.26 23.8938L2705.55 84.2632L2707.4 85.0209ZM2731.19 25.2727H2741.7V23.2727H2731.19V25.2727ZM2740.7 24.2727V97H2742.7V24.2727H2740.7ZM2741.7 96H2733.46V98H2741.7V96ZM2734.46 97V41.7443H2732.46V97H2734.46ZM2733.46 40.7443H2732.75V42.7443H2733.46V40.7443ZM2731.83 41.3639L2709.1 96.6196L2710.95 97.3804L2733.68 42.1247L2731.83 41.3639ZM2710.02 96H2702.07V98H2710.02V96ZM2702.99 96.6196L2680.27 41.3639L2678.42 42.1247L2701.14 97.3804L2702.99 96.6196ZM2679.34 40.7443H2678.63V42.7443H2679.34V40.7443ZM2677.63 41.7443V97H2679.63V41.7443H2677.63ZM2678.63 96H2670.39V98H2678.63V96ZM2671.39 97V24.2727H2669.39V97H2671.39ZM2759.36 97H2758.36V98H2759.36V97ZM2759.36 24.2727V23.2727H2758.36V24.2727H2759.36ZM2768.16 24.2727H2769.16V23.2727H2768.16V24.2727ZM2768.16 89.1875H2767.16V90.1875H2768.16V89.1875ZM2801.97 89.1875H2802.97V88.1875H2801.97V89.1875ZM2801.97 97V98H2802.97V97H2801.97ZM2760.36 97V24.2727H2758.36V97H2760.36ZM2759.36 25.2727H2768.16V23.2727H2759.36V25.2727ZM2767.16 24.2727V89.1875H2769.16V24.2727H2767.16ZM2768.16 90.1875H2801.97V88.1875H2768.16V90.1875ZM2800.97 89.1875V97H2802.97V89.1875H2800.97ZM2801.97 96H2759.36V98H2801.97V96Z" fill="url(#paint6_linear_125_104)" mask="url(#path-13-outside-7_125_104)"/>
</g>
</g>
<defs>
<linearGradient id="paint0_linear_125_104" x1="0" y1="60.5" x2="371" y2="60.5" gradientUnits="userSpaceOnUse">
<stop stop-color="white"/>
<stop offset="1" stop-color="#EDD5E2"/>
</linearGradient>
<linearGradient id="paint1_linear_125_104" x1="406" y1="60.5" x2="777" y2="60.5" gradientUnits="userSpaceOnUse">
<stop stop-color="white"/>
<stop offset="1" stop-color="#EDD5E2"/>
</linearGradient>
<linearGradient id="paint2_linear_125_104" x1="812" y1="60.5" x2="1183" y2="60.5" gradientUnits="userSpaceOnUse">
<stop stop-color="white"/>
<stop offset="1" stop-color="#EDD5E2"/>
</linearGradient>
<linearGradient id="paint3_linear_125_104" x1="1218" y1="60.5" x2="1589" y2="60.5" gradientUnits="userSpaceOnUse">
<stop stop-color="white"/>
<stop offset="1" stop-color="#EDD5E2"/>
</linearGradient>
<linearGradient id="paint4_linear_125_104" x1="1624" y1="60.5" x2="1995" y2="60.5" gradientUnits="userSpaceOnUse">
<stop stop-color="white"/>
<stop offset="1" stop-color="#EDD5E2"/>
</linearGradient>
<linearGradient id="paint5_linear_125_104" x1="2030" y1="60.5" x2="2401" y2="60.5" gradientUnits="userSpaceOnUse">
<stop stop-color="white"/>
<stop offset="1" stop-color="#EDD5E2"/>
</linearGradient>
<linearGradient id="paint6_linear_125_104" x1="2436" y1="60.5" x2="2807" y2="60.5" gradientUnits="userSpaceOnUse">
<stop stop-color="white"/>
<stop offset="1" stop-color="#EDD5E2"/>
</linearGradient>
</defs>
</svg>
