<svg width="221" height="54" viewBox="0 0 221 54" fill="none" xmlns="http://www.w3.org/2000/svg">
<mask id="path-1-outside-1_132_2" maskUnits="userSpaceOnUse" x="-1" y="-1" width="223" height="56" fill="black">
<rect fill="white" x="-1" y="-1" width="223" height="56"/>
<path d="M17.2 54L0.72 1.04H7.04L20.64 45.52L34.88 1.04H41.76L56 45.52L69.6 1.04H75.92L59.44 54H52.64L38.32 9.52L24 54H17.2ZM83.1206 54V1.04H89.1206V24.56H119.921V1.04H125.921V54H119.921V30.4H89.1206V54H83.1206ZM154.902 54V33.04L132.662 1.04H139.942L157.862 26.8L175.782 1.04H183.062L160.902 33.04V54H154.902ZM201.441 39.36C201.441 36.7467 201.895 34.5333 202.801 32.72C203.708 30.8533 204.828 29.2533 206.161 27.92C207.495 26.5333 208.801 25.2267 210.081 24C211.415 22.72 212.535 21.3867 213.441 20C214.348 18.56 214.801 16.8533 214.801 14.88C214.801 13.5467 214.481 12.1867 213.841 10.8C213.255 9.41333 212.215 8.26666 210.721 7.36C209.228 6.4 207.175 5.92 204.561 5.92C201.948 5.92 199.735 6.42667 197.921 7.44C196.161 8.45333 194.775 9.78667 193.761 11.44C192.801 13.0933 192.241 14.8533 192.081 16.72H186.401C186.561 13.7867 187.361 11.0933 188.801 8.64C190.295 6.13333 192.321 4.13333 194.881 2.64C197.495 1.14667 200.561 0.399999 204.081 0.399999C207.921 0.399999 211.041 1.12 213.441 2.56C215.895 3.94666 217.681 5.76 218.801 8C219.921 10.1867 220.481 12.48 220.481 14.88C220.481 17.3867 220.028 19.4933 219.121 21.2C218.268 22.8533 217.175 24.3467 215.841 25.68C214.561 26.96 213.255 28.2133 211.921 29.44C210.588 30.6667 209.468 32.08 208.561 33.68C207.708 35.2267 207.281 37.12 207.281 39.36H201.441ZM200.481 54V45.84H208.241V54H200.481Z"/>
</mask>
<path d="M17.2 54L0.72 1.04H7.04L20.64 45.52L34.88 1.04H41.76L56 45.52L69.6 1.04H75.92L59.44 54H52.64L38.32 9.52L24 54H17.2ZM83.1206 54V1.04H89.1206V24.56H119.921V1.04H125.921V54H119.921V30.4H89.1206V54H83.1206ZM154.902 54V33.04L132.662 1.04H139.942L157.862 26.8L175.782 1.04H183.062L160.902 33.04V54H154.902ZM201.441 39.36C201.441 36.7467 201.895 34.5333 202.801 32.72C203.708 30.8533 204.828 29.2533 206.161 27.92C207.495 26.5333 208.801 25.2267 210.081 24C211.415 22.72 212.535 21.3867 213.441 20C214.348 18.56 214.801 16.8533 214.801 14.88C214.801 13.5467 214.481 12.1867 213.841 10.8C213.255 9.41333 212.215 8.26666 210.721 7.36C209.228 6.4 207.175 5.92 204.561 5.92C201.948 5.92 199.735 6.42667 197.921 7.44C196.161 8.45333 194.775 9.78667 193.761 11.44C192.801 13.0933 192.241 14.8533 192.081 16.72H186.401C186.561 13.7867 187.361 11.0933 188.801 8.64C190.295 6.13333 192.321 4.13333 194.881 2.64C197.495 1.14667 200.561 0.399999 204.081 0.399999C207.921 0.399999 211.041 1.12 213.441 2.56C215.895 3.94666 217.681 5.76 218.801 8C219.921 10.1867 220.481 12.48 220.481 14.88C220.481 17.3867 220.028 19.4933 219.121 21.2C218.268 22.8533 217.175 24.3467 215.841 25.68C214.561 26.96 213.255 28.2133 211.921 29.44C210.588 30.6667 209.468 32.08 208.561 33.68C207.708 35.2267 207.281 37.12 207.281 39.36H201.441ZM200.481 54V45.84H208.241V54H200.481Z" fill="white"/>
<path d="M17.2 54L16.2452 54.2971L16.4639 55H17.2V54ZM0.72 1.04V0.0399952H-0.638476L-0.234839 1.33712L0.72 1.04ZM7.04 1.04L7.9963 0.747602L7.77994 0.0399952H7.04V1.04ZM20.64 45.52L19.6837 45.8124L20.6181 48.8683L21.5924 45.8249L20.64 45.52ZM34.88 1.04V0.0399952H34.1501L33.9276 0.735095L34.88 1.04ZM41.76 1.04L42.7124 0.735095L42.4899 0.0399952H41.76V1.04ZM56 45.52L55.0476 45.8249L56.0219 48.8683L56.9563 45.8124L56 45.52ZM69.6 1.04V0.0399952H68.8601L68.6437 0.747602L69.6 1.04ZM75.92 1.04L76.8748 1.33712L77.2785 0.0399952H75.92V1.04ZM59.44 54V55H60.1761L60.3948 54.2971L59.44 54ZM52.64 54L51.6881 54.3065L51.9114 55H52.64V54ZM38.32 9.52L39.2719 9.21354L38.32 6.25685L37.3681 9.21354L38.32 9.52ZM24 54V55H24.7286L24.9519 54.3065L24 54ZM18.1548 53.7029L1.67484 0.74287L-0.234839 1.33712L16.2452 54.2971L18.1548 53.7029ZM0.72 2.04H7.04V0.0399952H0.72V2.04ZM6.0837 1.33239L19.6837 45.8124L21.5963 45.2276L7.9963 0.747602L6.0837 1.33239ZM21.5924 45.8249L35.8324 1.3449L33.9276 0.735095L19.6876 45.2151L21.5924 45.8249ZM34.88 2.04H41.76V0.0399952H34.88V2.04ZM40.8076 1.3449L55.0476 45.8249L56.9524 45.2151L42.7124 0.735095L40.8076 1.3449ZM56.9563 45.8124L70.5563 1.33239L68.6437 0.747602L55.0437 45.2276L56.9563 45.8124ZM69.6 2.04H75.92V0.0399952H69.6V2.04ZM74.9652 0.74287L58.4852 53.7029L60.3948 54.2971L76.8748 1.33712L74.9652 0.74287ZM59.44 53H52.64V55H59.44V53ZM53.5919 53.6935L39.2719 9.21354L37.3681 9.82645L51.6881 54.3065L53.5919 53.6935ZM37.3681 9.21354L23.0481 53.6935L24.9519 54.3065L39.2719 9.82645L37.3681 9.21354ZM24 53H17.2V55H24V53ZM83.1206 54H82.1206V55H83.1206V54ZM83.1206 1.04V0.0399952H82.1206V1.04H83.1206ZM89.1206 1.04H90.1206V0.0399952H89.1206V1.04ZM89.1206 24.56H88.1206V25.56H89.1206V24.56ZM119.921 24.56V25.56H120.921V24.56H119.921ZM119.921 1.04V0.0399952H118.921V1.04H119.921ZM125.921 1.04H126.921V0.0399952H125.921V1.04ZM125.921 54V55H126.921V54H125.921ZM119.921 54H118.921V55H119.921V54ZM119.921 30.4H120.921V29.4H119.921V30.4ZM89.1206 30.4V29.4H88.1206V30.4H89.1206ZM89.1206 54V55H90.1206V54H89.1206ZM84.1206 54V1.04H82.1206V54H84.1206ZM83.1206 2.04H89.1206V0.0399952H83.1206V2.04ZM88.1206 1.04V24.56H90.1206V1.04H88.1206ZM89.1206 25.56H119.921V23.56H89.1206V25.56ZM120.921 24.56V1.04H118.921V24.56H120.921ZM119.921 2.04H125.921V0.0399952H119.921V2.04ZM124.921 1.04V54H126.921V1.04H124.921ZM125.921 53H119.921V55H125.921V53ZM120.921 54V30.4H118.921V54H120.921ZM119.921 29.4H89.1206V31.4H119.921V29.4ZM88.1206 30.4V54H90.1206V30.4H88.1206ZM89.1206 53H83.1206V55H89.1206V53ZM154.902 54H153.902V55H154.902V54ZM154.902 33.04H155.902V32.7266L155.723 32.4693L154.902 33.04ZM132.662 1.04V0.0399952H130.749L131.841 1.6107L132.662 1.04ZM139.942 1.04L140.763 0.468931L140.464 0.0399952H139.942V1.04ZM157.862 26.8L157.041 27.3711L157.862 28.5511L158.683 27.3711L157.862 26.8ZM175.782 1.04V0.0399952H175.259L174.961 0.468931L175.782 1.04ZM183.062 1.04L183.884 1.60931L184.971 0.0399952H183.062V1.04ZM160.902 33.04L160.08 32.4707L159.902 32.7276V33.04H160.902ZM160.902 54V55H161.902V54H160.902ZM155.902 54V33.04H153.902V54H155.902ZM155.723 32.4693L133.483 0.469292L131.841 1.6107L154.081 33.6107L155.723 32.4693ZM132.662 2.04H139.942V0.0399952H132.662V2.04ZM139.121 1.61106L157.041 27.3711L158.683 26.2289L140.763 0.468931L139.121 1.61106ZM158.683 27.3711L176.603 1.61106L174.961 0.468931L157.041 26.2289L158.683 27.3711ZM175.782 2.04H183.062V0.0399952H175.782V2.04ZM182.24 0.470678L160.08 32.4707L161.724 33.6093L183.884 1.60931L182.24 0.470678ZM159.902 33.04V54H161.902V33.04H159.902ZM160.902 53H154.902V55H160.902V53ZM201.441 39.36H200.441V40.36H201.441V39.36ZM202.801 32.72L203.696 33.1672L203.701 33.1569L202.801 32.72ZM206.161 27.92L206.868 28.6271L206.875 28.6202L206.882 28.6131L206.161 27.92ZM210.081 24L210.773 24.722L210.774 24.7214L210.081 24ZM213.441 20L214.278 20.5472L214.283 20.5401L214.287 20.5328L213.441 20ZM213.841 10.8L212.92 11.1896L212.927 11.2045L212.933 11.2191L213.841 10.8ZM210.721 7.36L210.18 8.20118L210.191 8.20812L210.202 8.21479L210.721 7.36ZM197.921 7.44L197.433 6.56698L197.422 6.57338L197.921 7.44ZM193.761 11.44L192.909 10.9174L192.902 10.9276L192.896 10.9379L193.761 11.44ZM192.081 16.72V17.72H192.999L193.078 16.8054L192.081 16.72ZM186.401 16.72L185.403 16.6655L185.345 17.72H186.401V16.72ZM188.801 8.64L187.942 8.12818L187.939 8.1338L188.801 8.64ZM194.881 2.64L194.385 1.77172L194.377 1.77622L194.881 2.64ZM213.441 2.56L212.927 3.41749L212.938 3.42417L212.949 3.43056L213.441 2.56ZM218.801 8L217.907 8.44723L217.911 8.45587L218.801 8ZM219.121 21.2L218.238 20.7308L218.233 20.7414L219.121 21.2ZM208.561 33.68L207.691 33.187L207.686 33.1969L208.561 33.68ZM207.281 39.36V40.36H208.281V39.36H207.281ZM200.481 54H199.481V55H200.481V54ZM200.481 45.84V44.84H199.481V45.84H200.481ZM208.241 45.84H209.241V44.84H208.241V45.84ZM208.241 54V55H209.241V54H208.241ZM202.441 39.36C202.441 36.8585 202.876 34.8075 203.696 33.1672L201.907 32.2728C200.914 34.2592 200.441 36.6348 200.441 39.36H202.441ZM203.701 33.1569C204.564 31.3804 205.621 29.8742 206.868 28.6271L205.454 27.2129C204.035 28.6325 202.852 30.3263 201.902 32.2831L203.701 33.1569ZM206.882 28.6131C208.207 27.2354 209.504 25.9385 210.773 24.722L209.389 23.278C208.099 24.5149 206.782 25.8312 205.44 27.2269L206.882 28.6131ZM210.774 24.7214C212.156 23.3949 213.326 22.004 214.278 20.5472L212.604 19.4527C211.743 20.7693 210.674 22.0451 209.389 23.2786L210.774 24.7214ZM214.287 20.5328C215.31 18.9091 215.801 17.0112 215.801 14.88H213.801C213.801 16.6955 213.386 18.2109 212.595 19.4672L214.287 20.5328ZM215.801 14.88C215.801 13.3823 215.441 11.8799 214.749 10.3809L212.933 11.2191C213.521 12.4934 213.801 13.711 213.801 14.88H215.801ZM214.762 10.4104C214.081 8.8005 212.883 7.5028 211.24 6.50521L210.202 8.21479C211.546 9.03053 212.428 10.0262 212.92 11.1896L214.762 10.4104ZM211.262 6.51882C209.548 5.41706 207.281 4.92 204.561 4.92V6.92C207.068 6.92 208.908 7.38293 210.18 8.20118L211.262 6.51882ZM204.561 4.92C201.82 4.92 199.43 5.45155 197.433 6.56706L198.409 8.31294C200.04 7.40178 202.075 6.92 204.561 6.92V4.92ZM197.422 6.57338C195.525 7.66598 194.013 9.11486 192.909 10.9174L194.614 11.9626C195.536 10.4585 196.798 9.24069 198.42 8.30662L197.422 6.57338ZM192.896 10.9379C191.864 12.716 191.258 14.6179 191.085 16.6346L193.078 16.8054C193.225 15.0887 193.739 13.4706 194.626 11.9421L192.896 10.9379ZM192.081 15.72H186.401V17.72H192.081V15.72ZM187.4 16.7745C187.551 13.995 188.307 11.4574 189.664 9.1462L187.939 8.1338C186.415 10.7293 185.571 13.5783 185.403 16.6655L187.4 16.7745ZM189.66 9.1518C191.066 6.79303 192.969 4.91317 195.385 3.50378L194.377 1.77622C191.673 3.35349 189.524 5.47363 187.942 8.12819L189.66 9.1518ZM195.377 3.50824C197.816 2.11489 200.706 1.4 204.081 1.4V-0.600001C200.417 -0.600001 197.173 0.178439 194.385 1.77176L195.377 3.50824ZM204.081 1.4C207.805 1.4 210.73 2.09921 212.927 3.41749L213.956 1.70251C211.353 0.140787 208.038 -0.600001 204.081 -0.600001V1.4ZM212.949 3.43056C215.252 4.732 216.887 6.407 217.907 8.44721L219.696 7.55278C218.476 5.11299 216.537 3.16133 213.933 1.68944L212.949 3.43056ZM217.911 8.45587C218.961 10.5049 219.481 12.6424 219.481 14.88H221.481C221.481 12.3176 220.882 9.86842 219.691 7.54412L217.911 8.45587ZM219.481 14.88C219.481 17.2702 219.049 19.2052 218.238 20.7308L220.004 21.6692C221.007 19.7815 221.481 17.5031 221.481 14.88H219.481ZM218.233 20.7414C217.427 22.3018 216.396 23.7115 215.134 24.9729L216.548 26.3871C217.954 24.9818 219.109 23.4049 220.01 21.6586L218.233 20.7414ZM215.134 24.9729C213.864 26.2431 212.567 27.4868 211.244 28.7041L212.598 30.1759C213.942 28.9399 215.259 27.6769 216.548 26.3871L215.134 24.9729ZM211.244 28.7041C209.833 30.0022 208.648 31.4979 207.691 33.187L209.431 34.173C210.287 32.6621 211.343 31.3311 212.598 30.1759L211.244 28.7041ZM207.686 33.1969C206.732 34.926 206.281 36.9954 206.281 39.36H208.281C208.281 37.2446 208.684 35.5273 209.437 34.1631L207.686 33.1969ZM207.281 38.36H201.441V40.36H207.281V38.36ZM201.481 54V45.84H199.481V54H201.481ZM200.481 46.84H208.241V44.84H200.481V46.84ZM207.241 45.84V54H209.241V45.84H207.241ZM208.241 53H200.481V55H208.241V53Z" fill="black" mask="url(#path-1-outside-1_132_2)"/>
</svg>
